<?xml version="1.0" encoding="UTF-8"?><svg id="Layer_2" xmlns="http://www.w3.org/2000/svg" xmlns:xlink="http://www.w3.org/1999/xlink" viewBox="0 0 2157.63 1852.63"><defs><clipPath id="clippath"><rect x="844.37" y="84.1" width="238.02" height="196.14" style="fill:none; stroke-width:0px;"/></clipPath><clipPath id="clippath-1"><rect x="844.37" y="84.1" width="238.02" height="196.14" style="fill:none; stroke-width:0px;"/></clipPath></defs><g id="_ÎÓÈ_1"><path d="M1232.54,1652.07c7.09-19.9,6.46-41.56,7.16-62.68,1.76-52.71,16.59-111.36,61.97-138.23,15.82-9.37,34.08-13.94,52.35-16.08,28.46-3.33,58.1-.84,84.17,11.05,40.84,18.62,68.33,57.64,90.24,96.82,15.03,26.87,28.72,55.94,28.58,86.74-.06,13.82-3.7,28.01-10.35,40.2h71.33s-40.72-542.89-125.28-580.48c-84.57-37.58-346.62-83.52-454.93-119.54l-415.78-9.4s-341.5,107.94-438.49,195.75c-100.89,91.35-151.93,200.49-177.4,294.64-29.88,110.43,53.63,219.02,168.03,219.02h232.89c56.41,0,111.86,14.59,160.96,42.36l220.69,124.81c36.53,20.66,81.19,20.75,117.81.25l224.54-125.74c11.28-6.31,22.9-11.9,34.77-16.82,19.14-9.65,59.66-22.75,66.76-42.69Z" style="fill:#d8f2d9; stroke-width:0px;"/><path d="M396.31,137.27l49.34-17.44-50.41-15.41c-15.04-3.44-26.85-15.07-30.53-30.06L346.48,0l-14.62,73.8c-3.08,15.56-14.9,27.92-30.31,31.7l-46.42,17.66,45.81,14.52c15.99,3.17,28.56,15.55,31.97,31.48l15.43,72.01,16.74-73.11c3.54-15.46,15.72-27.47,31.23-30.8Z" style="fill:#d8f2d9; stroke-width:0px;"/><path d="M1924.34,1493.01l26.76-9.46-27.34-8.36c-8.16-1.87-14.56-8.18-16.56-16.3l-9.89-40.34-7.93,40.03c-1.67,8.44-8.08,15.15-16.44,17.2l-25.18,9.58,24.85,7.88c8.67,1.72,15.49,8.43,17.34,17.08l8.37,39.06,9.08-39.66c1.92-8.39,8.53-14.9,16.94-16.7Z" style="fill:#b4d9b6; stroke-width:0px;"/><path d="M1414.68,920.6l50.56-17.87-51.65-15.79c-15.41-3.53-27.51-15.45-31.28-30.8l-18.69-76.2-14.99,75.62c-3.16,15.94-15.27,28.61-31.06,32.49l-47.56,18.1,46.94,14.88c16.38,3.25,29.26,15.93,32.76,32.26l15.81,73.79,17.15-74.92c3.63-15.84,16.11-28.15,32-31.56Z" style="fill:#272727; stroke-width:0px;"/><path d="M195.2,1071.61l28.94-10.23-29.57-9.04c-8.82-2.02-15.75-8.84-17.91-17.63l-10.7-43.62-8.58,43.29c-1.81,9.13-8.74,16.38-17.78,18.6l-27.23,10.36,26.87,8.52c9.38,1.86,16.75,9.12,18.75,18.47l9.05,42.24,9.82-42.89c2.08-9.07,9.22-16.12,18.32-18.06Z" style="fill:#272727; stroke-width:0px;"/><path d="M798.86,1710.05c-.67,0-1.35-.22-1.91-.65l-363.92-281.45c-1.31-1.01-1.61-2.85-.69-4.22l88.16-131.41-89.96-135.83c-.91-1.37-.6-3.2.69-4.21l381.85-295.8c1.21-.94,2.93-.86,4.06.19,1.12,1.05,1.32,2.76.46,4.03l-289.57,431.63,273.15,412.41c.54.56.88,1.33.88,2.17,0,1.73-1.4,3.13-3.13,3.13h-.06ZM439.17,1424.78l346.61,268.06-261.54-394.87-85.07,126.81ZM437.36,1155.45l86.91,131.23,277.33-413.38-364.25,282.16Z" style="fill:#272727; stroke-width:0px;"/><path d="M798.86,1503.88c-.21,0-.42-.02-.63-.06l-363.92-75.29c-1.37-.28-2.38-1.43-2.49-2.82-.11-1.39.71-2.68,2.02-3.17l197.1-74.4-57.19-53.43-138.49,125.9c-1.28,1.16-3.26,1.07-4.43-.21-1.16-1.28-1.07-3.26.21-4.43l138.12-125.56-127.39-119.02c-1.26-1.18-1.33-3.16-.15-4.43,1.18-1.27,3.17-1.33,4.43-.15l127.76,119.37,60.88-55.35-202.61-73.14c-1.32-.48-2.16-1.77-2.06-3.17.1-1.4,1.12-2.56,2.49-2.84l374.68-77.08c1.39-.28,2.78.39,3.42,1.65.64,1.26.36,2.79-.69,3.74l-163.34,148.49,155.13,56c1.23.44,2.06,1.61,2.07,2.92,0,1.31-.8,2.49-2.02,2.95l-159.19,60.09,158.43,148.03c1.02.96,1.29,2.48.64,3.73-.54,1.05-1.63,1.69-2.78,1.69ZM446.14,1424.58l342.43,70.84-152.54-142.52-189.89,71.68ZM578.39,1290.48l59.07,55.19,154.14-58.18-150.26-54.24-62.96,57.23ZM444.66,1155.59l195.26,70.49,157.33-143.03-352.59,72.54Z" style="fill:#272727; stroke-width:0px;"/><path d="M901.04,1727.98c-.73,0-1.47-.26-2.06-.78-1.3-1.14-1.43-3.12-.29-4.42l379.99-433.51-386.48-416.75c-1.17-1.27-1.1-3.25.17-4.43,1.27-1.18,3.25-1.1,4.43.17l388.4,418.82c1.09,1.17,1.12,2.99.06,4.19l-381.85,435.63c-.62.71-1.49,1.07-2.36,1.07Z" style="fill:#272727; stroke-width:0px;"/><path d="M902.83,1503.88c-1.07,0-2.12-.55-2.7-1.54-.88-1.49-.38-3.41,1.11-4.29l359.36-211.55-361.17-215.11c-1.49-.89-1.97-2.81-1.09-4.29.89-1.49,2.81-1.98,4.29-1.09l365.71,217.82c.95.57,1.53,1.59,1.53,2.7,0,1.1-.59,2.13-1.54,2.69l-363.92,214.23c-.5.29-1.05.43-1.58.43Z" style="fill:#272727; stroke-width:0px;"/><path d="M1282.89,1290.55h-374.68c-1.73,0-3.13-1.4-3.13-3.13s1.4-3.13,3.13-3.13h374.68c1.73,0,3.13,1.4,3.13,3.13s-1.4,3.13-3.13,3.13Z" style="fill:#272727; stroke-width:0px;"/><circle cx="367.26" cy="1154.76" r="65.88" transform="translate(-255.48 115.27) rotate(-13.28)" style="fill:#b4d9b6; stroke-width:0px;"/><path d="M367.26,1223.77c-38.06,0-69.02-30.96-69.02-69.02s30.96-69.01,69.02-69.01,69.01,30.96,69.01,69.01-30.96,69.02-69.01,69.02ZM367.26,1092.01c-34.6,0-62.75,28.15-62.75,62.75s28.15,62.75,62.75,62.75,62.75-28.15,62.75-62.75-28.15-62.75-62.75-62.75Z" style="fill:#272727; stroke-width:0px;"/><circle cx="367.26" cy="1418.29" r="65.88" style="fill:#b4d9b6; stroke-width:0px;"/><path d="M367.26,1487.3c-38.06,0-69.02-30.96-69.02-69.02s30.96-69.02,69.02-69.02,69.01,30.96,69.01,69.02-30.96,69.02-69.01,69.02ZM367.26,1355.54c-34.6,0-62.75,28.15-62.75,62.75s28.15,62.75,62.75,62.75,62.75-28.15,62.75-62.75-28.15-62.75-62.75-62.75Z" style="fill:#272727; stroke-width:0px;"/><circle cx="853.98" cy="1711.4" r="65.88" transform="translate(-960.02 1105.11) rotate(-45)" style="fill:#272727; stroke-width:0px;"/><circle cx="853.98" cy="1507.03" r="65.88" transform="translate(-318.36 231.87) rotate(-13.06)" style="fill:#272727; stroke-width:0px;"/><circle cx="853.98" cy="1289.21" r="65.88" style="fill:#272727; stroke-width:0px;"/><circle cx="853.98" cy="810.79" r="65.88" transform="translate(-161.08 213.87) rotate(-13.06)" style="fill:#b8e5ff; stroke-width:0px;"/><path d="M853.98,879.81c-38.06,0-69.02-30.96-69.02-69.01s30.96-69.02,69.02-69.02,69.01,30.96,69.01,69.02-30.96,69.01-69.01,69.01ZM853.98,748.04c-34.6,0-62.75,28.15-62.75,62.75s28.15,62.75,62.75,62.75,62.75-28.15,62.75-62.75-28.15-62.75-62.75-62.75Z" style="fill:#272727; stroke-width:0px;"/><path d="M490.45,507.2h-.03l-201.75-1.92c-1.36-.01-2.56-.91-2.96-2.21l-27.59-89.86-150.3,2.75h-.06c-1.7,0-3.1-1.36-3.13-3.07-.03-1.73,1.35-3.16,3.07-3.19l152.66-2.8h.06c1.37,0,2.59.9,2.99,2.21l27.6,89.92,199.46,1.9c1.73.02,3.12,1.43,3.1,3.16-.02,1.72-1.42,3.1-3.13,3.1Z" style="fill:#272727; stroke-width:0px;"/><path d="M156.36,476.85c-1.73,0-3.13-1.4-3.13-3.13,0-1.73,1.39-3.14,3.13-3.14l118.87-.24h0c1.73,0,3.13,1.4,3.13,3.13,0,1.73-1.39,3.14-3.13,3.14l-118.87.24h0Z" style="fill:#272727; stroke-width:0px;"/><path d="M555.66,458.25h0l-222.67-.7c-1.35,0-2.55-.88-2.97-2.17l-31.95-98.57-77.5,1.75h-.07c-1.7,0-3.09-1.36-3.13-3.06-.04-1.73,1.33-3.16,3.06-3.2l79.83-1.8c1.42-.02,2.62.85,3.05,2.17l31.97,98.62,220.4.69c1.73,0,3.13,1.41,3.12,3.14,0,1.73-1.41,3.12-3.13,3.12Z" style="fill:#272727; stroke-width:0px;"/><path d="M105.17,614.85c-1.73,0-3.13-1.4-3.13-3.13,0-1.73,1.39-3.14,3.13-3.14l68.35-.16,56.24-44.36c.55-.44,1.24-.67,1.94-.67h.04l281.72,3.96c1.73.02,3.11,1.45,3.09,3.17-.02,1.73-1.53,3.18-3.17,3.09l-280.61-3.94-56.22,44.34c-.55.43-1.23.67-1.93.67l-69.43.16h0Z" style="fill:#272727; stroke-width:0px;"/><path d="M104.47,612.71c-1.05,0-2.07-.53-2.66-1.48l-24.74-39.86-52.35-.79c-1.73-.03-3.11-1.45-3.09-3.18.03-1.73,1.39-3.01,3.18-3.09l54.06.82c1.07.02,2.05.57,2.62,1.48l25.64,41.31c.91,1.47.46,3.4-1.01,4.31-.51.32-1.09.47-1.65.47Z" style="fill:#272727; stroke-width:0px;"/><path d="M273.7,569.82c-1.14,0-2.24-.62-2.8-1.71l-22.93-45.04-89.48-2.55c-1.73-.05-3.09-1.49-3.04-3.22.05-1.73,1.57-2.96,3.22-3.04l91.34,2.61c1.15.03,2.18.69,2.7,1.71l23.77,46.69c.78,1.54.17,3.43-1.37,4.21-.46.23-.94.34-1.42.34Z" style="fill:#272727; stroke-width:0px;"/><path d="M24.45,553.63c-7.73.1-13.89,6.46-13.78,14.18.1,7.73,6.42,13.89,14.15,13.79,7.72-.1,13.92-6.42,13.82-14.15-.1-7.73-6.46-13.92-14.18-13.82Z" style="fill:#272727; stroke-width:0px;"/><path d="M174.18,597.53c-7.73.1-13.92,6.42-13.82,14.15s6.46,13.92,14.18,13.82c7.73-.1,13.92-6.46,13.82-14.18-.1-7.73-6.46-13.89-14.18-13.79Z" style="fill:#272727; stroke-width:0px;"/><path d="M264.33,596.35c-7.73.1-13.92,6.42-13.82,14.15.1,7.73,6.46,13.92,14.18,13.82,7.73-.1,13.92-6.46,13.82-14.18-.1-7.73-6.46-13.89-14.18-13.79Z" style="fill:#272727; stroke-width:0px;"/><path d="M162.1,506.86c-7.72.1-13.92,6.46-13.82,14.18.1,7.73,6.46,13.92,14.18,13.82,7.73-.1,13.92-6.46,13.82-14.18s-6.46-13.92-14.18-13.82Z" style="fill:#272727; stroke-width:0px;"/><path d="M245.77,505.77c-7.73.1-13.92,6.46-13.82,14.18s6.46,13.92,14.18,13.82c7.72-.1,13.92-6.46,13.82-14.18-.1-7.73-6.46-13.92-14.18-13.82Z" style="fill:#272727; stroke-width:0px;"/><path d="M159.59,459.36c-7.73.1-13.89,6.46-13.78,14.18.1,7.73,6.42,13.89,14.15,13.79,7.72-.1,13.92-6.42,13.82-14.15-.1-7.73-6.46-13.92-14.18-13.82Z" style="fill:#272727; stroke-width:0px;"/><path d="M259.3,395.04c-7.72.1-13.89,6.42-13.79,14.15.1,7.76,6.42,13.92,14.15,13.82,7.73-.1,13.92-6.42,13.82-14.18-.1-7.73-6.46-13.89-14.18-13.79Z" style="fill:#272727; stroke-width:0px;"/><path d="M222.21,344.06c-7.72.1-13.92,6.46-13.82,14.18.1,7.73,6.46,13.89,14.18,13.79,7.73-.1,13.89-6.42,13.79-14.15-.1-7.73-6.42-13.92-14.15-13.82Z" style="fill:#272727; stroke-width:0px;"/><path d="M361.06,351.91c-7.72.1-13.92,6.46-13.82,14.18.1,7.73,6.46,13.89,14.18,13.79,7.73-.1,13.89-6.42,13.79-14.15-.1-7.73-6.42-13.92-14.15-13.82Z" style="fill:#272727; stroke-width:0px;"/><path d="M109.3,398.74c-7.73.1-13.92,6.46-13.82,14.18.1,7.73,6.46,13.89,14.18,13.79,7.72-.1,13.89-6.42,13.79-14.15-.1-7.73-6.42-13.92-14.15-13.82Z" style="fill:#272727; stroke-width:0px;"/><path d="M279.05,457.8c-7.73.1-13.92,6.46-13.82,14.18.1,7.73,6.46,13.89,14.18,13.79,7.72-.1,13.89-6.42,13.79-14.15-.1-7.73-6.42-13.92-14.15-13.82Z" style="fill:#272727; stroke-width:0px;"/><path d="M388.75,458.26c-1.35,0-2.59-.87-3-2.22l-27.53-90.97c-.5-1.66.43-3.4,2.09-3.91,1.66-.5,3.4.43,3.91,2.09l27.53,90.97c.5,1.66-.43,3.4-2.09,3.91-.3.09-.61.13-.91.13Z" style="fill:#272727; stroke-width:0px;"/><path d="M256.21,620.69c-.9,0-1.79-.38-2.41-1.12-1.11-1.33-.93-3.3.39-4.41l59.07-49.36c1.34-1.11,3.31-.93,4.41.39,1.11,1.33.93,3.3-.39,4.41l-59.07,49.36c-.59.49-1.3.73-2.01.73Z" style="fill:#272727; stroke-width:0px;"/><path d="M647.05,798.48h-.02l-233.07-1.92c-1.37-.01-2.57-.91-2.97-2.21l-27.59-89.86-150.3,2.75h-.06c-1.7,0-3.1-1.36-3.13-3.07-.03-1.73,1.35-3.16,3.07-3.19l152.66-2.8h.06c1.37,0,2.59.9,2.99,2.21l27.6,89.92,230.77,1.9c1.73.02,3.12,1.43,3.11,3.16-.02,1.72-1.41,3.11-3.13,3.11Z" style="fill:#272727; stroke-width:0px;"/><path d="M281.64,768.13c-1.73,0-3.13-1.4-3.13-3.13,0-1.73,1.39-3.14,3.13-3.14l118.87-.24c1.77.06,3.14,1.39,3.14,3.13,0,1.73-1.39,3.14-3.13,3.14l-118.87.24h0Z" style="fill:#272727; stroke-width:0px;"/><path d="M680.95,749.53h0l-222.67-.7c-1.35,0-2.55-.88-2.97-2.17l-31.95-98.57-77.5,1.75h-.07c-1.7,0-3.09-1.35-3.13-3.06-.04-1.73,1.33-3.16,3.06-3.2l79.83-1.8c1.32-.07,2.62.85,3.05,2.17l31.97,98.62,220.4.69c1.73,0,3.13,1.41,3.12,3.14,0,1.73-1.41,3.12-3.13,3.12Z" style="fill:#272727; stroke-width:0px;"/><path d="M230.46,906.14c-1.73,0-3.13-1.4-3.13-3.13,0-1.73,1.39-3.14,3.13-3.14l68.35-.16,56.24-44.36c.57-.45,1.21-.65,1.98-.67l294.25,3.96c1.73.02,3.11,1.44,3.09,3.17-.02,1.72-1.42,3.09-3.13,3.09h-.04l-293.14-3.94-56.22,44.34c-.55.43-1.23.67-1.93.67l-69.43.16h0Z" style="fill:#272727; stroke-width:0px;"/><path d="M229.75,904c-1.05,0-2.07-.53-2.66-1.48l-24.74-39.86-52.35-.79c-1.73-.03-3.11-1.45-3.09-3.18.03-1.73,1.34-3.1,3.18-3.09l54.06.82c1.07.02,2.05.58,2.62,1.48l25.64,41.31c.91,1.47.46,3.4-1.01,4.31-.51.32-1.09.47-1.65.47Z" style="fill:#272727; stroke-width:0px;"/><path d="M398.98,861.1c-1.14,0-2.24-.62-2.8-1.71l-22.93-45.04-89.48-2.55c-1.73-.05-3.09-1.49-3.04-3.22.05-1.73,1.43-3.05,3.22-3.04l91.34,2.61c1.15.03,2.18.69,2.7,1.71l23.77,46.69c.78,1.54.17,3.43-1.37,4.21-.46.23-.94.34-1.42.34Z" style="fill:#272727; stroke-width:0px;"/><path d="M149.73,844.91c-7.73.1-13.89,6.46-13.78,14.18.1,7.73,6.42,13.89,14.15,13.79,7.72-.1,13.92-6.42,13.82-14.15-.1-7.73-6.46-13.92-14.18-13.82Z" style="fill:#272727; stroke-width:0px;"/><path d="M299.46,888.81c-7.73.1-13.92,6.42-13.82,14.15.1,7.73,6.46,13.92,14.18,13.82,7.73-.1,13.92-6.46,13.82-14.18-.1-7.73-6.46-13.89-14.18-13.79Z" style="fill:#272727; stroke-width:0px;"/><path d="M389.61,887.64c-7.73.1-13.92,6.42-13.82,14.15.1,7.73,6.46,13.92,14.18,13.82,7.73-.1,13.92-6.46,13.82-14.18-.1-7.73-6.46-13.89-14.18-13.79Z" style="fill:#272727; stroke-width:0px;"/><path d="M287.38,798.14c-7.72.1-13.92,6.46-13.82,14.18.1,7.73,6.46,13.92,14.18,13.82,7.73-.1,13.92-6.46,13.82-14.18-.1-7.73-6.46-13.92-14.18-13.82Z" style="fill:#272727; stroke-width:0px;"/><path d="M371.05,797.05c-7.73.1-13.92,6.46-13.82,14.18.1,7.73,6.46,13.92,14.18,13.82,7.72-.1,13.92-6.46,13.82-14.18-.1-7.73-6.46-13.92-14.18-13.82Z" style="fill:#272727; stroke-width:0px;"/><path d="M284.87,750.64c-7.73.1-13.89,6.46-13.78,14.18s6.42,13.89,14.15,13.79c7.72-.1,13.92-6.42,13.82-14.15-.1-7.73-6.46-13.92-14.18-13.82Z" style="fill:#272727; stroke-width:0px;"/><path d="M384.58,686.32c-7.72.1-13.89,6.42-13.79,14.15.1,7.76,6.42,13.92,14.15,13.82,7.73-.1,13.92-6.42,13.82-14.18-.1-7.73-6.46-13.89-14.18-13.79Z" style="fill:#272727; stroke-width:0px;"/><path d="M347.49,635.34c-7.72.1-13.92,6.46-13.82,14.18.1,7.73,6.46,13.89,14.18,13.79,7.73-.1,13.89-6.42,13.79-14.15-.1-7.73-6.42-13.92-14.15-13.82Z" style="fill:#272727; stroke-width:0px;"/><path d="M486.35,643.19c-7.72.1-13.92,6.46-13.82,14.18.1,7.73,6.46,13.89,14.18,13.79,7.73-.1,13.89-6.42,13.79-14.15s-6.42-13.92-14.15-13.82Z" style="fill:#272727; stroke-width:0px;"/><path d="M234.58,690.02c-7.73.1-13.92,6.46-13.82,14.18.1,7.73,6.46,13.89,14.18,13.79,7.72-.1,13.89-6.42,13.79-14.15-.1-7.73-6.42-13.92-14.15-13.82Z" style="fill:#272727; stroke-width:0px;"/><path d="M404.34,749.09c-7.73.1-13.92,6.46-13.82,14.18.1,7.73,6.46,13.89,14.18,13.79,7.72-.1,13.89-6.42,13.79-14.15-.1-7.73-6.42-13.92-14.15-13.82Z" style="fill:#272727; stroke-width:0px;"/><path d="M514.03,749.54c-1.35,0-2.59-.87-3-2.22l-27.53-90.97c-.5-1.66.43-3.4,2.09-3.91,1.66-.5,3.4.44,3.91,2.09l27.53,90.97c.5,1.66-.43,3.4-2.09,3.91-.3.09-.61.13-.91.13Z" style="fill:#272727; stroke-width:0px;"/><path d="M381.49,911.97c-.9,0-1.79-.38-2.41-1.12-1.11-1.33-.93-3.3.39-4.41l59.07-49.36c1.33-1.11,3.3-.93,4.41.39,1.11,1.33.93,3.3-.39,4.41l-59.07,49.36c-.59.49-1.3.73-2.01.73Z" style="fill:#272727; stroke-width:0px;"/><path d="M1131.06,333.94c35.55-4.01,72.31,62.07,82.06,147.77,9.76,85.74-11.24,158.71-46.79,162.76-9.7,1.09-44,4.98-53.65,6.11-35.55,4.01-72.05-62.43-81.8-148.13-9.71-85.71,10.99-158.35,46.49-162.4,9.65-1.09,44.01-4.98,53.7-6.12Z" style="fill:#272727; stroke-width:0px;"/><circle cx="827.87" cy="347.22" r="337.32" style="fill:#b4d9b6; stroke-width:0px;"/><path d="M827.87,687.68c-187.73,0-340.46-152.73-340.46-340.46S640.14,6.77,827.87,6.77s340.46,152.73,340.46,340.46-152.73,340.46-340.46,340.46ZM827.87,13.03c-184.28,0-334.19,149.92-334.19,334.19s149.92,334.19,334.19,334.19,334.19-149.92,334.19-334.19S1012.15,13.03,827.87,13.03Z" style="fill:#272727; stroke-width:0px;"/><path d="M1162.86,380.59c-1.84,26.28-4.64,54.97-8.18,86.3-12.46,110.65,4.81,226.44-112.92,310.27-10.15,7.25-21.27,14.23-33.53,20.94l-.17,85.37-.95,37.09c.53,22.61,14.1,40.16,30.67,49.32-109.1,82.38-278.43,96.15-425.18-5.48,29.75-24.27,36.63-22.58,36.99-42.72l3.84-208.04c-6.55-12.59-77.62-205.87-99.43-299.58,108.28,19.17,133.76-122.04,170.33-210.44.67-1.74,1.37-3.41,2.1-5.08,39.88-26.02,77.05-53.44,149.62-51.63,101.53,2.61,162.05,26.95,205.63,65.06,23.28,40.75,38.31,115.86,66.8,155.3,4.38,6.01,9.18,10.29,14.36,13.33Z" style="fill:#fff; stroke-width:0px;"/><path d="M834.3,1039.31c-77.87,0-155.14-25.01-223.48-72.34-.81-.56-1.31-1.47-1.35-2.45-.04-.98.39-1.93,1.15-2.55,7.62-6.22,13.72-10.73,18.63-14.35,14.04-10.37,16.96-12.52,17.21-26l3.83-207.28c-9.38-19.62-78.07-208.19-99.33-299.58-.24-1.02.05-2.1.78-2.87.72-.76,1.76-1.13,2.82-.93,6.44,1.14,12.75,1.72,18.76,1.72,72.69,0,102.76-84.86,129.29-159.73,6.36-17.96,12.38-34.92,18.84-50.54.66-1.71,1.38-3.43,2.13-5.14.24-.56.65-1.03,1.15-1.36l6.81-4.46c36.98-24.29,75.3-49.33,144.61-47.68,93,2.39,158.97,23.3,207.62,65.83.26.23.49.5.66.8,10.36,18.13,18.91,42.4,27.95,68.1,11.28,32.03,22.94,65.16,38.66,86.92,3.92,5.39,8.31,9.47,13.41,12.46,1.03.6,1.62,1.73,1.54,2.92-1.72,24.58-4.4,52.85-8.2,86.44-2.23,19.82-3.53,40.16-4.78,59.83-5.73,89.98-11.66,183.02-109.44,252.64-9.92,7.08-20.75,13.89-32.22,20.24l-.16,83.52-.95,37.17c.46,19.26,11.32,36.7,29.05,46.49.93.51,1.54,1.46,1.61,2.52.08,1.06-.39,2.08-1.24,2.72-57.16,43.16-130.09,66.93-205.37,66.93ZM617.84,964.19c66.42,45.06,141.18,68.85,216.46,68.85s142.35-22.3,197.86-62.89c-17.26-11.21-27.7-29.4-28.17-49.52l.95-37.25.17-85.29c0-1.14.63-2.19,1.63-2.74,11.86-6.49,23.03-13.47,33.22-20.74,95.35-67.89,100.92-155.35,106.82-247.94,1.26-19.74,2.56-40.16,4.81-60.13,3.69-32.64,6.33-60.24,8.04-84.28-5.15-3.32-9.62-7.64-13.64-13.15-16.26-22.51-28.07-56.07-39.5-88.52-8.87-25.2-17.26-49.02-27.22-66.61-47.45-41.28-112.05-61.6-203.25-63.94-67.44-1.68-103.16,21.79-141.02,46.65l-6.03,3.95c-.58,1.35-1.14,2.7-1.68,4.1-6.43,15.55-12.41,32.43-18.75,50.31-27.22,76.82-58.08,163.9-135.19,163.9-4.91,0-10-.36-15.19-1.08,22.91,94.93,92.3,283.2,98.08,294.32.24.47.36.98.35,1.5l-3.84,208.04c-.3,16.57-5.2,20.18-19.75,30.93-4.13,3.05-9.12,6.73-15.13,11.53Z" style="fill:#272727; stroke-width:0px;"/><path d="M1071.82,476.38c-.97,21.01-13.89,37.47-28.86,36.77-1.1-.07-2.17-.2-3.24-.43-13.36-2.87-23.01-19.37-22.11-38.84.83-18.57,11.05-33.63,23.75-36.34,1.67-.37,3.37-.5,5.11-.43,15,.7,26.32,18.3,25.35,39.28Z" style="fill:#272727; stroke-width:0px;"/><path d="M1043.88,516.3c-.35,0-.71,0-1.07-.02-1.36-.08-2.58-.25-3.76-.5-14.97-3.22-25.53-21.29-24.57-42.05.89-19.7,11.91-36.21,26.22-39.26,1.84-.41,3.85-.59,5.88-.5,16.7.78,29.41,19.87,28.36,42.55-1.03,22.31-14.68,39.78-31.07,39.78ZM1045.63,440.21c-1.25,0-2.46.13-3.59.38-11.59,2.47-20.54,16.52-21.29,33.42-.82,17.74,7.62,33.05,19.64,35.64.87.19,1.77.31,2.77.37.21,0,.47.02.73.02,12.82,0,23.95-15.16,24.81-33.8.89-19.23-9.15-35.39-22.37-36.01h-.69Z" style="fill:#272727; stroke-width:0px;"/><path d="M1063.47,476.38c-.83,18.57-11.05,33.63-23.75,36.34-13.36-2.87-23.01-19.37-22.11-38.84.83-18.57,11.05-33.63,23.75-36.34,13.36,2.87,23.01,19.4,22.11,38.84Z" style="fill:#b4d9b6; stroke-width:0px;"/><path d="M1039.72,515.85c-.22,0-.44-.02-.66-.07-14.98-3.22-25.54-21.29-24.58-42.05.89-19.7,11.91-36.21,26.22-39.26.43-.09.87-.09,1.31,0,14.98,3.22,25.55,21.3,24.58,42.05-.89,19.69-11.91,36.21-26.22,39.25-.22.05-.43.07-.65.07ZM1041.35,440.75c-11.25,2.84-19.87,16.68-20.61,33.26-.81,17.41,7.31,32.5,18.98,35.48,11.25-2.85,19.87-16.69,20.62-33.26.81-17.41-7.32-32.5-18.99-35.48Z" style="fill:#272727; stroke-width:0px;"/><path d="M841.37,476.38c-.97,21.01-13.89,37.47-28.86,36.77-1.1-.07-2.17-.2-3.24-.43-13.36-2.87-23.01-19.37-22.11-38.84.83-18.57,11.05-33.63,23.75-36.34,1.67-.37,3.37-.5,5.11-.43,15,.7,26.32,18.3,25.35,39.28Z" style="fill:#272727; stroke-width:0px;"/><path d="M813.43,516.3c-.35,0-.71,0-1.07-.02-1.37-.08-2.58-.25-3.76-.5-14.96-3.22-25.53-21.29-24.57-42.05.89-19.7,11.91-36.21,26.22-39.26,1.84-.41,3.85-.59,5.88-.5,16.7.78,29.41,19.87,28.36,42.55-1.03,22.31-14.67,39.78-31.06,39.78ZM815.18,440.21c-1.25,0-2.46.13-3.59.38-11.59,2.47-20.54,16.52-21.3,33.42-.82,17.74,7.63,33.05,19.64,35.64.87.19,1.77.31,2.77.37.21,0,.47.02.73.02,12.82,0,23.95-15.16,24.81-33.8.89-19.23-9.14-35.39-22.36-36.01h-.69Z" style="fill:#272727; stroke-width:0px;"/><path d="M833.02,476.38c-.83,18.57-11.05,33.63-23.75,36.34-13.36-2.87-23.01-19.37-22.11-38.84.83-18.57,11.05-33.63,23.75-36.34,13.36,2.87,23.01,19.4,22.11,38.84Z" style="fill:#b4d9b6; stroke-width:0px;"/><path d="M809.27,515.85c-.22,0-.44-.02-.66-.07-14.97-3.22-25.54-21.29-24.58-42.05.89-19.7,11.91-36.21,26.22-39.26.43-.09.87-.09,1.31,0,14.98,3.22,25.54,21.29,24.58,42.05-.89,19.69-11.91,36.21-26.22,39.25-.22.05-.43.07-.65.07ZM810.9,440.75c-11.25,2.84-19.87,16.68-20.62,33.26-.8,17.41,7.32,32.5,18.99,35.48,11.25-2.85,19.87-16.69,20.62-33.26.8-17.41-7.32-32.5-18.99-35.48Z" style="fill:#272727; stroke-width:0px;"/><path d="M840.63,394.65c-.62,3.92-4.77,6.12-8.46,7.57-18.88,7.39-39.21,11.07-59.49,10.77-3.59-.05-7.3-.26-10.53-1.82-5.57-2.69-8.74-9.57-7.17-15.55,1.29-4.9,5.29-8.72,9.82-10.98,4.53-2.26,9.59-3.18,14.58-4.04,18.59-3.2,39.11-5.55,55.08,4.49,3.41,2.14,6.81,5.59,6.18,9.56Z" style="fill:#272727; stroke-width:0px;"/><path d="M1014.6,390.54c.62,3.89,4.73,6.07,8.39,7.5,18.73,7.33,38.89,10.98,59,10.69,3.56-.05,7.24-.25,10.45-1.8,5.52-2.67,8.67-9.49,7.11-15.42-1.28-4.86-5.25-8.65-9.74-10.89-4.49-2.24-9.51-3.16-14.46-4.01-18.43-3.17-38.79-5.51-54.62,4.45-3.38,2.13-6.75,5.54-6.13,9.48Z" style="fill:#272727; stroke-width:0px;"/><path d="M925.14,674.16c-69.69,0-104.32-54.01-104.73-54.68-.91-1.47-.46-3.4,1-4.31,1.47-.91,3.4-.47,4.32,1,1.97,3.16,49.49,76.9,148.76,42.99,1.64-.55,3.42.31,3.98,1.95.56,1.64-.31,3.42-1.95,3.98-18.84,6.44-35.96,9.08-51.37,9.08Z" style="fill:#272727; stroke-width:0px;"/><path d="M807.43,628.77c-.85,0-1.7-.35-2.32-1.02-1.16-1.28-1.07-3.26.21-4.43l28.66-26.06c1.28-1.16,3.26-1.07,4.43.21,1.16,1.28,1.07,3.26-.21,4.43l-28.66,26.06c-.6.54-1.36.81-2.11.81Z" style="fill:#272727; stroke-width:0px;"/><path d="M1041.76,777.16c-10.15,7.25-21.27,14.23-33.53,20.94l-.17,85.37c-153.97,5.54-285.96-145.48-285.96-145.48,118.03,80.16,240.48,73.48,317.28,37.84l2.37,1.34Z" style="fill:#272727; stroke-width:0px;"/><path d="M523.93,365.04c-34.99,7.46-48.93,81.78-31.04,166.16,17.9,84.42,60.93,146.98,95.93,139.57,9.54-2.03,43.32-9.21,52.82-11.2,34.99-7.46,48.57-82.04,30.68-166.41-17.94-84.37-60.57-146.72-95.53-139.31-9.5,2.03-43.32,9.21-52.87,11.2Z" style="fill:#272727; stroke-width:0px;"/><path d="M510.87,520.6c-13.73-64.67-8.04-120.68,12.71-125.06,20.74-4.42,48.65,44.44,62.38,109.11,13.73,64.67,8.04,120.68-12.7,125.1-20.75,4.37-48.66-44.48-62.39-109.15Z" style="fill:#d8f2d9; stroke-width:0px;"/><path d="M764.41,771.18c-.37,0-.74-.06-1.1-.2-25.12-9.42-24.73-79-21.98-155.66.83-23.06,1.54-42.98,0-49.14-3-12-20.67-11.97-39.62-11.98-11.24.03-22.86.02-32.69-2.44-1.68-.42-2.7-2.12-2.28-3.8.42-1.68,2.12-2.71,3.8-2.28,9.09,2.27,20.36,2.32,31.17,2.25,20.37-.05,41.51-.03,45.7,16.72,1.76,7.01,1.09,25.41.18,50.88-1.89,52.72-5.06,140.95,17.92,149.56,1.62.61,2.44,2.41,1.83,4.03-.47,1.26-1.67,2.03-2.93,2.03Z" style="fill:#272727; stroke-width:0px;"/><path d="M1076.14,752.25c-.92,0-1.83-.4-2.45-1.17-1.08-1.35-.86-3.32.49-4.4,19.92-15.93,16.86-86.38,14.83-132.99-1.58-36.28-2.11-53.91,2.84-58.37,5.56-5,15.24-9.69,25.49-14.66,11.03-5.34,22.43-10.86,28.41-16.7,1.24-1.21,3.23-1.19,4.43.05,1.21,1.24,1.19,3.22-.05,4.43-6.71,6.55-18.58,12.31-30.05,17.86-9.84,4.77-19.13,9.26-24.03,13.68-2.95,3.33-1.8,29.96-.77,53.44,2.33,53.57,5.22,120.24-17.17,138.16-.58.46-1.27.69-1.95.69Z" style="fill:#272727; stroke-width:0px;"/><path d="M659.21,979.92c-1.63,0-3-1.26-3.12-2.91-.13-1.73,1.17-3.22,2.9-3.35.87-.07,21.52-1.86,29.03-21.38,8.79-22.85,12.02-182.73,3.89-192.22-9.6-11.19-29.38-32.68-40.7-44.23-1.21-1.23-1.19-3.22.04-4.43,1.23-1.21,3.21-1.2,4.43.04,11.41,11.62,31.32,33.27,40.99,44.54,7.22,8.42,6.58,69.97,5.97,96.04-.95,40.87-4.1,90.38-8.77,102.5-8.96,23.3-33.39,25.3-34.43,25.38-.08,0-.15,0-.23,0Z" style="fill:#272727; stroke-width:0px;"/><path d="M1005.72,979.92c-.61,0-1.23-.18-1.77-.55-6.5-4.48-38.93-27.5-38.93-40.99,0-12.3-4.13-91.72-4.17-92.52-.09-1.73,1.24-3.2,2.97-3.29,1.68-.16,3.2,1.24,3.29,2.97.17,3.28,4.18,80.38,4.18,92.84,0,7.5,21.18,25.47,36.22,35.83,1.43.98,1.78,2.93.8,4.36-.61.88-1.58,1.35-2.58,1.35Z" style="fill:#272727; stroke-width:0px;"/><circle cx="736.44" cy="476.23" r="15.45" transform="translate(-138.31 539.03) rotate(-37)" style="fill:#272727; stroke-width:0px;"/><circle cx="1100.49" cy="473.72" r="15.45" transform="translate(-81.37 277.01) rotate(-13.84)" style="fill:#272727; stroke-width:0px;"/><circle cx="696.16" cy="481.03" r="10.65" transform="translate(-91.56 171.97) rotate(-13.22)" style="fill:#272727; stroke-width:0px;"/><circle cx="1141.82" cy="476.64" r="10.65" transform="translate(-72.86 241.06) rotate(-11.68)" style="fill:#272727; stroke-width:0px;"/><path d="M844.59,65.96h182.85c13.12,0,23.46,9.78,23.46,21.62v179.82c0,6.43-3.08,12.62-8.66,16.74l-106.63,81.02-106.1-81.02c-5.29-4.12-8.37-10.31-8.37-16.74V87.59c0-12.09,10.33-21.62,23.46-21.62Z" style="fill:#272727; stroke-width:0px;"/><path d="M935.6,368.3c-.67,0-1.34-.21-1.9-.64l-106.1-81.02c-6.02-4.69-9.6-11.87-9.6-19.23V87.59c0-13.88,11.68-24.76,26.59-24.76h182.85c14.66,0,26.59,11.11,26.59,24.76v179.82c0,7.58-3.62,14.6-9.93,19.26l-106.59,81c-.56.43-1.23.64-1.9.64ZM844.59,69.1c-11.4,0-20.32,8.12-20.32,18.49v179.82c0,5.44,2.68,10.78,7.16,14.27l104.18,79.56,104.73-79.58c4.73-3.49,7.43-8.67,7.43-14.24V87.59c0-10.2-9.12-18.49-20.33-18.49h-182.85Z" style="fill:#272727; stroke-width:0px;"/><g style="clip-path:url(#clippath);"><path d="M924.44,117.81l42.88,121.08h-27.44l-7.81-24.89h-44.6l-8.37,24.89h-26.46l43.22-121.08h28.58ZM909.88,145.49l-15.59,47.66h30.71l-15.12-47.66Z" style="fill:#fff; stroke-width:0px;"/></g><g style="clip-path:url(#clippath-1);"><path d="M1004.85,149.35v89.55h-23.72v-89.55h23.72ZM1004.85,117.07v21.6h-23.72v-21.6h23.72Z" style="fill:#fff; stroke-width:0px;"/></g><circle cx="616.91" cy="308.82" r="16.14" style="fill:#b8e5ff; stroke-width:0px;"/><circle cx="659.21" cy="218.64" r="20.6" transform="translate(236.85 769.98) rotate(-70.89)" style="fill:#d8f2d9; stroke-width:0px;"/><circle cx="566.81" cy="218.64" r="12.8" transform="translate(173.38 681.55) rotate(-70.73)" style="fill:#d8f2d9; stroke-width:0px;"/><circle cx="552.34" cy="305.48" r="9.46" transform="translate(-41.69 92.12) rotate(-9.19)" style="fill:#d8f2d9; stroke-width:0px;"/><circle cx="655.31" cy="132.36" r="22.27" style="fill:#d8f2d9; stroke-width:0px;"/><circle cx="753.28" cy="111.21" r="14.47" transform="translate(-2.15 206.73) rotate(-15.6)" style="fill:#d8f2d9; stroke-width:0px;"/><circle cx="713.62" cy="71.13" r="14.47" transform="translate(-2.05 117.35) rotate(-9.39)" style="fill:#d8f2d9; stroke-width:0px;"/><circle cx="719.05" cy="159.64" r="14.47" transform="translate(-17.51 158.59) rotate(-12.44)" style="fill:#d8f2d9; stroke-width:0px;"/><circle cx="767.2" cy="60.55" r="8.35" style="fill:#d8f2d9; stroke-width:0px;"/><path d="M845.69,43.3c0,3.69,2.99,6.68,6.68,6.68s6.68-2.99,6.68-6.68-2.99-6.68-6.68-6.68-6.68,2.99-6.68,6.68Z" style="fill:#d8f2d9; stroke-width:0px;"/><circle cx="1086.15" cy="170.21" r="13.36" transform="translate(197.77 817.88) rotate(-45)" style="fill:#d8f2d9; stroke-width:0px;"/><circle cx="1119" cy="237.57" r="8.35" style="fill:#d8f2d9; stroke-width:0px;"/><path d="M621.91,312.5c-.4,0-.8-.08-1.19-.24-1.6-.66-2.36-2.49-1.71-4.09l37.09-90.23,3.87-82.4c.06-1.35.98-2.5,2.28-2.87l92.78-26.19,9.09-46.54c.24-1.24,1.21-2.22,2.45-2.47l84.61-17.26c1.69-.35,3.35.75,3.69,2.44.35,1.69-.75,3.35-2.44,3.69l-82.57,16.84-9.06,46.38c-.23,1.16-1.09,2.1-2.22,2.41l-92.46,26.11-3.79,80.68c-.02.36-.09.71-.23,1.04l-37.3,90.73c-.5,1.21-1.67,1.94-2.9,1.94Z" style="fill:#d8f2d9; stroke-width:0px;"/><path d="M552.34,308.61c-.9,0-1.78-.38-2.4-1.12-1.11-1.32-.94-3.3.38-4.41l91.49-76.85-71.32-5.03c-1.2-.08-2.24-.84-2.69-1.95-.45-1.11-.22-2.38.58-3.27l72.36-80.16c1.16-1.29,3.14-1.39,4.42-.23,1.28,1.16,1.39,3.14.23,4.42l-68.06,75.38,72.63,5.12c1.27.09,2.36.94,2.76,2.16.39,1.21.01,2.54-.96,3.36l-97.41,81.83c-.59.49-1.3.73-2.01.73Z" style="fill:#d8f2d9; stroke-width:0px;"/><path d="M1143.48,261.02c-.67,0-1.34-.21-1.91-.65l-21.71-16.7c-.41-.32-.74-.73-.95-1.2l-32.56-72.64c-.71-1.58,0-3.43,1.58-4.14,1.58-.71,3.43,0,4.14,1.58l32.24,71.92,21.08,16.22c1.37,1.06,1.63,3.02.58,4.39-.62.8-1.55,1.22-2.49,1.22Z" style="fill:#d8f2d9; stroke-width:0px;"/><path d="M705.14,125.33c-.15,0-.31-.01-.47-.03-1.71-.26-2.89-1.85-2.63-3.56l8.35-55.52c.26-1.71,1.87-2.88,3.56-2.63,1.71.26,2.89,1.85,2.63,3.56l-8.35,55.52c-.24,1.55-1.57,2.67-3.1,2.67Z" style="fill:#d8f2d9; stroke-width:0px;"/><path d="M660.15,175.88c-1.33-.21-2.42-1.27-2.61-2.68-.23-1.71.97-3.29,2.69-3.52l63.09-8.49c1.71-.24,3.29.97,3.52,2.69.23,1.71-.97,3.29-2.69,3.52l-63.09,8.49c-.31.04-.62.04-.91,0Z" style="fill:#d8f2d9; stroke-width:0px;"/><path d="M2067.44,143.02h-789.28c-19.03,0-34.45,15.43-34.45,34.45v501.13c0,19.03,15.42,34.45,34.45,34.45h306.38l96.09,136.24,77.21-136.24h309.6c19.03,0,34.45-15.43,34.45-34.45V177.47c0-19.03-15.42-34.45-34.45-34.45Z" style="fill:#272727; stroke-width:0px;"/><path d="M2086.24,125.79h-789.28c-19.03,0-34.45,15.42-34.45,34.45v501.13c0,19.03,15.42,34.45,34.45,34.45h306.38l96.09,136.24,77.21-136.24h309.6c19.03,0,34.45-15.43,34.45-34.45V160.24c0-19.03-15.42-34.45-34.45-34.45Z" style="fill:#fff; stroke-width:0px;"/><path d="M1699.43,835.2c-1.02,0-1.97-.49-2.56-1.33l-95.15-134.92h-304.76c-20.73,0-37.58-16.86-37.58-37.58V160.24c0-20.73,16.86-37.58,37.58-37.58h789.28c20.73,0,37.58,16.86,37.58,37.58v501.13c0,20.73-16.86,37.58-37.58,37.58h-307.78l-76.31,134.66c-.53.93-1.5,1.53-2.57,1.58-.05,0-.1,0-.16,0ZM1296.95,128.92c-17.27,0-31.32,14.05-31.32,31.32v501.13c0,17.27,14.05,31.32,31.32,31.32h306.38c1.02,0,1.97.5,2.56,1.33l93.24,132.2,74.77-131.94c.56-.98,1.6-1.59,2.73-1.59h309.6c17.27,0,31.32-14.05,31.32-31.32V160.24c0-17.27-14.05-31.32-31.32-31.32h-789.28Z" style="fill:#272727; stroke-width:0px;"/><path d="M1696.34,192.9c-1.73,0-3.13-1.4-3.13-3.13v-7.83c0-1.73,1.4-3.13,3.13-3.13s3.13,1.4,3.13,3.13v7.83c0,1.73-1.4,3.13-3.13,3.13Z" style="fill:#333; stroke-width:0px;"/><path d="M1696.34,641.67c-1.73,0-3.13-1.4-3.13-3.13v-16.03c0-1.73,1.4-3.13,3.13-3.13s3.13,1.4,3.13,3.13v16.03c0,1.73-1.4,3.13-3.13,3.13ZM1696.34,609.62c-1.73,0-3.13-1.4-3.13-3.13v-16.03c0-1.73,1.4-3.13,3.13-3.13s3.13,1.4,3.13,3.13v16.03c0,1.73-1.4,3.13-3.13,3.13ZM1696.34,577.56c-1.73,0-3.13-1.4-3.13-3.13v-16.03c0-1.73,1.4-3.13,3.13-3.13s3.13,1.4,3.13,3.13v16.03c0,1.73-1.4,3.13-3.13,3.13ZM1696.34,545.51c-1.73,0-3.13-1.4-3.13-3.13v-16.03c0-1.73,1.4-3.13,3.13-3.13s3.13,1.4,3.13,3.13v16.03c0,1.73-1.4,3.13-3.13,3.13ZM1696.34,513.45c-1.73,0-3.13-1.4-3.13-3.13v-16.03c0-1.73,1.4-3.13,3.13-3.13s3.13,1.4,3.13,3.13v16.03c0,1.73-1.4,3.13-3.13,3.13ZM1696.34,481.39c-1.73,0-3.13-1.4-3.13-3.13v-16.03c0-1.73,1.4-3.13,3.13-3.13s3.13,1.4,3.13,3.13v16.03c0,1.73-1.4,3.13-3.13,3.13ZM1696.34,449.34c-1.73,0-3.13-1.4-3.13-3.13v-16.03c0-1.73,1.4-3.13,3.13-3.13s3.13,1.4,3.13,3.13v16.03c0,1.73-1.4,3.13-3.13,3.13ZM1696.34,417.28c-1.73,0-3.13-1.4-3.13-3.13v-16.03c0-1.73,1.4-3.13,3.13-3.13s3.13,1.4,3.13,3.13v16.03c0,1.73-1.4,3.13-3.13,3.13ZM1696.34,385.23c-1.73,0-3.13-1.4-3.13-3.13v-16.03c0-1.73,1.4-3.13,3.13-3.13s3.13,1.4,3.13,3.13v16.03c0,1.73-1.4,3.13-3.13,3.13ZM1696.34,353.17c-1.73,0-3.13-1.4-3.13-3.13v-16.03c0-1.73,1.4-3.13,3.13-3.13s3.13,1.4,3.13,3.13v16.03c0,1.73-1.4,3.13-3.13,3.13ZM1696.34,321.12c-1.73,0-3.13-1.4-3.13-3.13v-16.03c0-1.73,1.4-3.13,3.13-3.13s3.13,1.4,3.13,3.13v16.03c0,1.73-1.4,3.13-3.13,3.13ZM1696.34,289.06c-1.73,0-3.13-1.4-3.13-3.13v-16.03c0-1.73,1.4-3.13,3.13-3.13s3.13,1.4,3.13,3.13v16.03c0,1.73-1.4,3.13-3.13,3.13ZM1696.34,257.01c-1.73,0-3.13-1.4-3.13-3.13v-16.03c0-1.73,1.4-3.13,3.13-3.13s3.13,1.4,3.13,3.13v16.03c0,1.73-1.4,3.13-3.13,3.13ZM1696.34,224.95c-1.73,0-3.13-1.4-3.13-3.13v-16.03c0-1.73,1.4-3.13,3.13-3.13s3.13,1.4,3.13,3.13v16.03c0,1.73-1.4,3.13-3.13,3.13Z" style="fill:#333; stroke-width:0px;"/><path d="M1696.34,665.53c-1.73,0-3.13-1.4-3.13-3.13v-7.83c0-1.73,1.4-3.13,3.13-3.13s3.13,1.4,3.13,3.13v7.83c0,1.73-1.4,3.13-3.13,3.13Z" style="fill:#333; stroke-width:0px;"/><path d="M1829.58,538.19c-.59,0-1.19-.17-1.72-.51l-91.23-59.73c-.9-.59-1.43-1.6-1.42-2.67.02-1.07.58-2.06,1.5-2.62l.32-.2c-.61-.94-.7-2.18-.13-3.23l25.67-46.74-32.22-57.2c-.85-1.51-.32-3.42,1.19-4.27,1.51-.85,3.42-.31,4.27,1.19l.98,1.75,89.14-56.03c1.21-.75,2.78-.61,3.81.37,1.04.98,1.28,2.54.6,3.79l-44.61,81.23,43.42,24.81c.96.55,1.56,1.57,1.58,2.67.02,1.11-.55,2.14-1.5,2.72l-43.82,26.74,46.89,83.25c.71,1.26.46,2.84-.59,3.83-.6.56-1.37.84-2.14.84ZM1744.2,475.42l76.34,49.98-40.48-71.87-35.86,21.89ZM1766.2,428.91l-21.27,38.73,32.06-19.57-10.79-19.16ZM1769.75,422.45l12.6,22.36,39.11-23.87-38.72-22.13-12.98,23.64ZM1743.96,376.66l22.17,39.36,11.16-20.32-33.33-19.05ZM1741.81,368.21l38.5,22,38.75-70.55-77.24,48.55Z" style="fill:#333; stroke-width:0px;"/><path d="M2006.47,577.9c-.4,0-.8-.08-1.19-.23l-100.09-41.02c-1.09-.45-1.84-1.47-1.94-2.64-.09-1.17.48-2.3,1.48-2.92l50.24-30.99-50.11-78.33-7.15-3.7c-.78-.4-1.36-1.12-1.58-1.97-.23-.85-.09-1.76.39-2.5l52.95-82.8-44.23-17.28c-1.04-.41-1.79-1.34-1.95-2.44-.17-1.11.26-2.22,1.14-2.92l94.19-75.48c1.35-1.08,3.32-.86,4.4.49,1.08,1.35.87,3.32-.49,4.4l-89.96,72.09,40.35,15.76,51.91-81.16c.93-1.46,2.87-1.88,4.33-.95,1.46.93,1.88,2.87.95,4.33l-51.24,80.11,47.77,18.66c1.09.43,1.85,1.42,1.97,2.58.13,1.16-.4,2.29-1.38,2.94l-97.76,65.17,99.43,51.53c1,.52,1.65,1.54,1.69,2.66.04,1.13-.52,2.19-1.48,2.78l-45.42,28.02,45.43,71.01c.73,1.15.64,2.65-.24,3.69-.61.73-1.5,1.13-2.4,1.13ZM1913.26,533.18l85.24,34.94-40.15-62.75-45.09,27.82ZM1915.98,427.52l44.32,69.28,40.8-25.17-85.12-44.11ZM1955.42,333.11l-51.07,79.86,94.4-62.93-43.33-16.93Z" style="fill:#333; stroke-width:0px;"/><path d="M1905.71,534.25c-.49,0-.99-.12-1.45-.36-1.4-.73-2.03-2.39-1.48-3.88l102.39-273.05c.61-1.62,2.41-2.43,4.03-1.83,1.62.61,2.44,2.41,1.83,4.03l-93.52,249.38,93.26-134.77c.98-1.43,2.93-1.78,4.36-.79,1.42.98,1.78,2.94.79,4.36l-107.64,155.56c-.6.87-1.58,1.35-2.58,1.35Z" style="fill:#333; stroke-width:0px;"/><path d="M2008.77,555.26c-1.22,0-2.38-.72-2.89-1.92l-100.42-238.92c-.61-1.45-.05-3.13,1.31-3.92,1.37-.8,3.1-.45,4.06.8l102.39,133.24c1.06,1.37.8,3.34-.58,4.39-1.38,1.06-3.34.79-4.39-.58l-87.64-114.05,91.04,216.6c.67,1.6-.08,3.43-1.67,4.1-.4.17-.81.24-1.21.24Z" style="fill:#333; stroke-width:0px;"/><circle cx="1866.99" cy="533.75" r="39.38" style="fill:#b4d9b6; stroke-width:0px;"/><path d="M1866.99,576.26c-23.44,0-42.52-19.07-42.52-42.51s19.07-42.52,42.52-42.52,42.52,19.07,42.52,42.52-19.07,42.51-42.52,42.51ZM1866.99,497.5c-19.99,0-36.25,16.26-36.25,36.25s16.26,36.25,36.25,36.25,36.25-16.26,36.25-36.25-16.26-36.25-36.25-36.25Z" style="fill:#333; stroke-width:0px;"/><circle cx="1866.99" cy="420.85" r="39.38" style="fill:#b4d9b6; stroke-width:0px;"/><path d="M1866.99,463.37c-23.44,0-42.52-19.07-42.52-42.51s19.07-42.52,42.52-42.52,42.52,19.07,42.52,42.52-19.07,42.51-42.52,42.51ZM1866.99,384.6c-19.99,0-36.25,16.26-36.25,36.25s16.26,36.25,36.25,36.25,36.25-16.26,36.25-36.25-16.26-36.25-36.25-36.25Z" style="fill:#333; stroke-width:0px;"/><circle cx="1866.99" cy="310.58" r="39.38" transform="translate(-25.62 299.35) rotate(-9.1)" style="fill:#b4d9b6; stroke-width:0px;"/><path d="M1866.99,353.09c-23.44,0-42.52-19.07-42.52-42.51s19.07-42.52,42.52-42.52,42.52,19.07,42.52,42.52-19.07,42.51-42.52,42.51ZM1866.99,274.33c-19.99,0-36.25,16.26-36.25,36.25s16.26,36.25,36.25,36.25,36.25-16.26,36.25-36.25-16.26-36.25-36.25-36.25Z" style="fill:#333; stroke-width:0px;"/><circle cx="2038.96" cy="242.32" r="39.38" transform="translate(425.85 1512.74) rotate(-45)" style="fill:#d8f2d9; stroke-width:0px;"/><path d="M2038.96,284.83c-23.44,0-42.52-19.07-42.52-42.52s19.07-42.51,42.52-42.51,42.51,19.07,42.51,42.51-19.07,42.52-42.51,42.52ZM2038.96,206.07c-19.99,0-36.25,16.26-36.25,36.25s16.26,36.25,36.25,36.25,36.25-16.26,36.25-36.25-16.26-36.25-36.25-36.25Z" style="fill:#333; stroke-width:0px;"/><circle cx="2038.96" cy="353.9" r="39.38" transform="translate(-27.74 460.49) rotate(-12.8)" style="fill:#d8f2d9; stroke-width:0px;"/><path d="M2038.96,396.42c-23.44,0-42.52-19.07-42.52-42.52s19.07-42.52,42.52-42.52,42.51,19.07,42.51,42.52-19.07,42.52-42.51,42.52ZM2038.96,317.65c-19.99,0-36.25,16.26-36.25,36.25s16.26,36.25,36.25,36.25,36.25-16.26,36.25-36.25-16.26-36.25-36.25-36.25Z" style="fill:#333; stroke-width:0px;"/><circle cx="2038.96" cy="462.86" r="39.38" style="fill:#d8f2d9; stroke-width:0px;"/><path d="M2038.96,505.37c-23.44,0-42.52-19.07-42.52-42.52s19.07-42.51,42.52-42.51,42.51,19.07,42.51,42.51-19.07,42.52-42.51,42.52ZM2038.96,426.61c-19.99,0-36.25,16.26-36.25,36.25s16.26,36.25,36.25,36.25,36.25-16.26,36.25-36.25-16.26-36.25-36.25-36.25Z" style="fill:#333; stroke-width:0px;"/><circle cx="2038.96" cy="574.44" r="39.38" style="fill:#d8f2d9; stroke-width:0px;"/><path d="M2038.96,616.96c-23.44,0-42.52-19.07-42.52-42.52s19.07-42.51,42.52-42.51,42.51,19.07,42.51,42.51-19.07,42.52-42.51,42.52ZM2038.96,538.19c-19.99,0-36.25,16.26-36.25,36.25s16.26,36.25,36.25,36.25,36.25-16.26,36.25-36.25-16.26-36.25-36.25-36.25Z" style="fill:#333; stroke-width:0px;"/><path d="M1563.09,538.19c-.77,0-1.54-.29-2.14-.84-1.05-.99-1.3-2.57-.59-3.83l46.89-83.25-43.82-26.74c-.95-.58-1.52-1.61-1.5-2.72.02-1.11.61-2.12,1.58-2.67l43.42-24.81-44.61-81.23c-.69-1.25-.44-2.81.6-3.79,1.04-.98,2.6-1.13,3.81-.37l89.14,56.03.98-1.75c.85-1.5,2.76-2.05,4.27-1.19,1.5.85,2.04,2.76,1.19,4.27l-32.22,57.2,25.67,46.74c.57,1.05.49,2.29-.13,3.23l.32.2c.92.56,1.48,1.55,1.5,2.62.02,1.07-.52,2.08-1.42,2.67l-91.24,59.73c-.53.34-1.12.51-1.72.51ZM1612.6,453.54l-40.48,71.87,76.34-49.98-35.87-21.89ZM1615.68,448.08l32.06,19.57-21.27-38.73-10.79,19.16ZM1571.22,420.94l39.11,23.87,12.59-22.36-12.98-23.64-38.73,22.13ZM1615.38,395.7l11.16,20.32,22.18-39.36-33.33,19.05ZM1573.62,319.66l38.74,70.55,38.5-22-77.24-48.55Z" style="fill:#333; stroke-width:0px;"/><path d="M1386.2,577.9c-.91,0-1.8-.4-2.4-1.13-.87-1.05-.97-2.54-.24-3.69l45.43-71.01-45.42-28.02c-.96-.59-1.53-1.66-1.48-2.78.04-1.13.69-2.14,1.69-2.66l99.43-51.53-97.76-65.17c-.97-.65-1.5-1.78-1.38-2.94.13-1.16.89-2.16,1.97-2.58l47.77-18.66-51.24-80.11c-.93-1.46-.5-3.4.95-4.33,1.46-.93,3.39-.5,4.33.95l51.91,81.16,40.35-15.76-89.96-72.09c-1.35-1.08-1.57-3.05-.49-4.4,1.08-1.35,3.05-1.56,4.4-.49l94.19,75.48c.87.7,1.31,1.81,1.14,2.92-.17,1.1-.91,2.04-1.95,2.44l-44.24,17.28,52.95,82.8c.47.74.61,1.65.39,2.5-.23.85-.8,1.57-1.58,1.97l-7.15,3.7-50.11,78.33,50.24,30.99c1,.62,1.57,1.75,1.48,2.92-.1,1.17-.84,2.19-1.94,2.64l-100.1,41.02c-.39.16-.79.23-1.19.23ZM1434.32,505.36l-40.15,62.75,85.24-34.94-45.09-27.82ZM1391.57,471.63l40.8,25.17,44.32-69.28-85.12,44.11ZM1393.93,350.04l94.4,62.93-51.07-79.86-43.33,16.93Z" style="fill:#333; stroke-width:0px;"/><path d="M1486.96,534.25c-1,0-1.98-.48-2.58-1.35l-107.64-155.56c-.98-1.42-.63-3.37.79-4.36,1.42-.98,3.37-.63,4.36.79l93.26,134.77-93.52-249.38c-.61-1.62.21-3.43,1.83-4.03,1.62-.6,3.43.21,4.03,1.83l102.39,273.05c.55,1.48-.08,3.14-1.48,3.88-.46.24-.96.36-1.45.36Z" style="fill:#333; stroke-width:0px;"/><path d="M1383.9,555.26c-.41,0-.82-.08-1.21-.24-1.59-.67-2.34-2.51-1.67-4.1l91.04-216.6-87.64,114.05c-1.06,1.37-3.02,1.63-4.39.58-1.37-1.06-1.63-3.02-.57-4.39l102.39-133.24c.96-1.25,2.69-1.6,4.06-.8,1.36.79,1.92,2.47,1.31,3.92l-100.42,238.92c-.5,1.2-1.67,1.92-2.89,1.92Z" style="fill:#333; stroke-width:0px;"/><circle cx="1525.68" cy="533.75" r="39.38" style="fill:#b4d9b6; stroke-width:0px;"/><path d="M1525.68,576.26c-23.44,0-42.51-19.07-42.51-42.51s19.07-42.52,42.51-42.52,42.52,19.07,42.52,42.52-19.07,42.51-42.52,42.51ZM1525.68,497.5c-19.99,0-36.25,16.26-36.25,36.25s16.26,36.25,36.25,36.25,36.25-16.26,36.25-36.25-16.26-36.25-36.25-36.25Z" style="fill:#333; stroke-width:0px;"/><circle cx="1525.68" cy="420.85" r="39.38" transform="translate(-54.13 325.97) rotate(-11.98)" style="fill:#b4d9b6; stroke-width:0px;"/><path d="M1525.68,463.37c-23.44,0-42.51-19.07-42.51-42.51s19.07-42.52,42.51-42.52,42.52,19.07,42.52,42.52-19.07,42.51-42.52,42.51ZM1525.68,384.6c-19.99,0-36.25,16.26-36.25,36.25s16.26,36.25,36.25,36.25,36.25-16.26,36.25-36.25-16.26-36.25-36.25-36.25Z" style="fill:#333; stroke-width:0px;"/><circle cx="1525.68" cy="310.58" r="39.38" transform="translate(994.17 1774.02) rotate(-81.55)" style="fill:#b4d9b6; stroke-width:0px;"/><path d="M1525.68,353.09c-23.44,0-42.51-19.07-42.51-42.51s19.07-42.52,42.51-42.52,42.52,19.07,42.52,42.52-19.07,42.51-42.52,42.51ZM1525.68,274.33c-19.99,0-36.25,16.26-36.25,36.25s16.26,36.25,36.25,36.25,36.25-16.26,36.25-36.25-16.26-36.25-36.25-36.25Z" style="fill:#333; stroke-width:0px;"/><circle cx="1353.71" cy="242.32" r="39.38" transform="translate(10.31 536.49) rotate(-22.5)" style="fill:#d8f2d9; stroke-width:0px;"/><path d="M1353.71,284.83c-23.44,0-42.52-19.07-42.52-42.52s19.07-42.51,42.52-42.51,42.52,19.07,42.52,42.51-19.07,42.52-42.52,42.52ZM1353.71,206.07c-19.99,0-36.25,16.26-36.25,36.25s16.26,36.25,36.25,36.25,36.25-16.26,36.25-36.25-16.26-36.25-36.25-36.25Z" style="fill:#333; stroke-width:0px;"/><circle cx="1353.71" cy="353.9" r="39.38" transform="translate(791.47 1635.18) rotate(-80.96)" style="fill:#d8f2d9; stroke-width:0px;"/><path d="M1353.71,396.42c-23.44,0-42.52-19.07-42.52-42.52s19.07-42.52,42.52-42.52,42.52,19.07,42.52,42.52-19.07,42.52-42.52,42.52ZM1353.71,317.65c-19.99,0-36.25,16.26-36.25,36.25s16.26,36.25,36.25,36.25,36.25-16.26,36.25-36.25-16.26-36.25-36.25-36.25Z" style="fill:#333; stroke-width:0px;"/><circle cx="1353.71" cy="462.86" r="39.38" style="fill:#d8f2d9; stroke-width:0px;"/><path d="M1353.71,505.37c-23.44,0-42.52-19.07-42.52-42.52s19.07-42.51,42.52-42.51,42.52,19.07,42.52,42.51-19.07,42.52-42.52,42.52ZM1353.71,426.61c-19.99,0-36.25,16.26-36.25,36.25s16.26,36.25,36.25,36.25,36.25-16.26,36.25-36.25-16.26-36.25-36.25-36.25Z" style="fill:#333; stroke-width:0px;"/><circle cx="1353.71" cy="574.44" r="39.38" style="fill:#d8f2d9; stroke-width:0px;"/><path d="M1353.71,616.96c-23.44,0-42.52-19.07-42.52-42.52s19.07-42.51,42.52-42.51,42.52,19.07,42.52,42.51-19.07,42.52-42.52,42.52ZM1353.71,538.19c-19.99,0-36.25,16.26-36.25,36.25s16.26,36.25,36.25,36.25,36.25-16.26,36.25-36.25-16.26-36.25-36.25-36.25Z" style="fill:#333; stroke-width:0px;"/><circle cx="1696.34" cy="368.34" r="39.38" style="fill:#b4d9b6; stroke-width:0px;"/><path d="M1696.34,410.86c-23.44,0-42.52-19.07-42.52-42.52s19.07-42.52,42.52-42.52,42.51,19.07,42.51,42.52-19.07,42.52-42.51,42.52ZM1696.34,332.09c-19.99,0-36.25,16.26-36.25,36.25s16.26,36.25,36.25,36.25,36.25-16.26,36.25-36.25-16.26-36.25-36.25-36.25Z" style="fill:#333; stroke-width:0px;"/><circle cx="1696.34" cy="475.99" r="39.38" style="fill:#b4d9b6; stroke-width:0px;"/><path d="M1696.34,518.5c-23.44,0-42.52-19.07-42.52-42.52s19.07-42.51,42.52-42.51,42.51,19.07,42.51,42.51-19.07,42.52-42.51,42.52ZM1696.34,439.74c-19.99,0-36.25,16.26-36.25,36.25s16.26,36.25,36.25,36.25,36.25-16.26,36.25-36.25-16.26-36.25-36.25-36.25Z" style="fill:#333; stroke-width:0px;"/><path d="M1949.77,198.19h-219.3c-1.73,0-3.13-1.4-3.13-3.13s1.4-3.13,3.13-3.13h219.3c1.73,0,3.13,1.4,3.13,3.13s-1.4,3.13-3.13,3.13Z" style="fill:#333; stroke-width:0px;"/><polygon points="1937.46 211.3 1944.35 195.06 1937.46 178.82 1975.95 195.06 1937.46 211.3" style="fill:#333; stroke-width:0px;"/><path d="M1633.4,198.19h-219.3c-1.73,0-3.13-1.4-3.13-3.13s1.4-3.13,3.13-3.13h219.3c1.73,0,3.13,1.4,3.13,3.13s-1.4,3.13-3.13,3.13Z" style="fill:#333; stroke-width:0px;"/><polygon points="1621.09 211.3 1627.99 195.06 1621.09 178.82 1659.58 195.06 1621.09 211.3" style="fill:#333; stroke-width:0px;"/><circle cx="853.98" cy="1076.77" r="65.88" transform="translate(-221.17 220.75) rotate(-13.06)" style="fill:#272727; stroke-width:0px;"/><circle cx="1332.64" cy="1286.52" r="65.88" transform="translate(-519.39 1319.13) rotate(-45)" style="fill:#b4d9b6; stroke-width:0px;"/><path d="M1332.64,1355.54c-38.06,0-69.02-30.96-69.02-69.01s30.96-69.02,69.02-69.02,69.02,30.96,69.02,69.02-30.96,69.01-69.02,69.01ZM1332.64,1223.77c-34.6,0-62.75,28.15-62.75,62.75s28.15,62.75,62.75,62.75,62.75-28.15,62.75-62.75-28.15-62.75-62.75-62.75Z" style="fill:#333; stroke-width:0px;"/><path d="M182.04,1355.42c73.76,24.21,105.67,200.87,19.2,204.31-91.75,3.64-162.19-119.81-83.83-186.59,23.47-20.01,45.47-24.01,64.63-17.72Z" style="fill:#fff; stroke-width:0px;"/><polygon points="1768.33 1679.29 1455.12 1676.16 1455.12 1315.97 1765.2 1196.95 1768.33 1679.29" style="fill:#0d0d0d; stroke-width:0px;"/><path d="M1765.6,908.11c-11.05,20.42-131.52,107.91-152.94,128" style="fill:#0d0d0d; stroke-width:0px;"/><path d="M1612.66,1064.3c-7.52,0-15.02-2.99-20.57-8.91-10.65-11.36-10.07-29.19,1.28-39.84,8.42-7.89,27.53-22.78,51.73-41.63,30.51-23.77,87.14-67.87,96.11-79.97,7.62-13.13,24.34-17.91,37.78-10.63,13.69,7.41,18.79,24.51,11.38,38.2-8.49,15.7-36.37,39.03-110.64,96.88-21.23,16.53-41.28,32.15-47.82,38.28-5.44,5.1-12.36,7.63-19.27,7.63Z" style="fill:#0d0d0d; stroke-width:0px;"/><path d="M1681.15,923.81c30.36-23.81,103.27-95.48,120.67-96.51,21.35-1.29,51.39,14.5,34.38,58.19-8.67,22.21-59.93,72.75-82.22,98.37-33.82-11.17-56.97-32.5-72.82-60.05Z" style="fill:#fff; stroke-width:0px;"/><path d="M1753.97,986.99c-.33,0-.66-.05-.98-.16-32.11-10.6-57.19-31.28-74.55-61.46-.77-1.35-.44-3.07.78-4.03,9.64-7.56,23.83-20.19,38.86-33.56,41.36-36.8,71.57-62.91,83.55-63.61.85-.05,1.73-.08,2.62-.08,10.94,0,25.6,4.33,33.91,16.48,5.49,8.03,10.11,22.54.96,46.05-6.61,16.94-36.55,49.15-60.61,75.02-8.41,9.04-16.35,17.59-22.17,24.27-.61.7-1.47,1.08-2.36,1.08ZM1685.22,924.57c16.33,27.3,38.53,45.54,67.76,55.65,5.72-6.49,13.12-14.45,20.92-22.85,23.69-25.48,53.18-57.2,59.36-73.03,6.46-16.6,6.36-30.52-.3-40.25-6.93-10.14-19.39-13.75-28.73-13.75-.76,0-1.51.02-2.24.07-10.75.64-50.64,36.13-79.76,62.04-14.03,12.49-27.34,24.33-37.01,32.1Z" style="fill:#272727; stroke-width:0px;"/><line x1="1924.14" y1="995.12" x2="1768.9" y2="1071.4" style="fill:#0d0d0d; stroke-width:0px;"/><path d="M1768.92,1102.73c-11.57,0-22.69-6.43-28.13-17.51-7.63-15.53-1.23-34.29,14.3-41.92l155.25-76.28c15.53-7.64,34.29-1.23,41.92,14.3,7.63,15.53,1.23,34.29-14.3,41.92l-155.25,76.28c-4.44,2.18-9.15,3.22-13.79,3.22Z" style="fill:#0d0d0d; stroke-width:0px;"/><line x1="1965.92" y1="1073.77" x2="1800.45" y2="1135.37" style="fill:#0d0d0d; stroke-width:0px;"/><path d="M1800.45,1166.7c-12.71,0-24.66-7.79-29.36-20.4-6.03-16.21,2.22-34.24,18.43-40.28l165.47-61.6c16.2-6.03,34.24,2.21,40.28,18.43,6.03,16.21-2.22,34.24-18.43,40.28l-165.47,61.6c-3.6,1.34-7.29,1.98-10.92,1.98Z" style="fill:#0d0d0d; stroke-width:0px;"/><line x1="2006.32" y1="1157.28" x2="1841.18" y2="1208.49" style="fill:#0d0d0d; stroke-width:0px;"/><path d="M1841.17,1239.82c-13.36,0-25.74-8.62-29.9-22.05-5.13-16.52,4.11-34.07,20.64-39.19l165.14-51.21c16.54-5.13,34.07,4.12,39.19,20.64,5.13,16.52-4.11,34.07-20.64,39.19l-165.14,51.21c-3.09.96-6.22,1.42-9.29,1.42Z" style="fill:#0d0d0d; stroke-width:0px;"/><line x1="1948.14" y1="1255.94" x2="1815.16" y2="1295.36" style="fill:#0d0d0d; stroke-width:0px;"/><path d="M1815.15,1323.55c-12.16,0-23.38-7.93-27.01-20.18-4.42-14.93,4.09-30.61,19.02-35.04l132.98-39.41c14.94-4.42,30.61,4.09,35.04,19.02s-4.09,30.61-19.02,35.04l-132.98,39.41c-2.67.79-5.37,1.17-8.02,1.17Z" style="fill:#0d0d0d; stroke-width:0px;"/><path d="M1838.57,981.13c2.74-1.93,5.71-3.62,8.92-4.97l67.71-28.47,64.55-77.42c16.71-20.03,46.49-22.73,66.51-6.02,20.03,16.7,22.73,46.48,6.03,66.51l-66.21,79.4c-8.55,10.25-19.58,18.41-31.89,23.59l-70.08,29.47c-.06.03-.13.04-.19.07-31.23-17.37-56.49-49.17-45.34-82.16Z" style="fill:#fff; stroke-width:0px;"/><path d="M1883.91,1066.4c-.54,0-1.07-.12-1.52-.37-31.77-17.67-58.56-51.08-46.79-85.9.21-.63.62-1.17,1.16-1.56,3.03-2.13,6.23-3.92,9.51-5.3l67-28.18,64.07-76.83c9.6-11.51,23.7-18.11,38.7-18.11,11.75,0,23.19,4.15,32.22,11.69,10.33,8.61,16.69,20.73,17.9,34.13,1.21,13.39-2.86,26.46-11.48,36.79l-66.21,79.4c-8.87,10.64-20.31,19.1-33.08,24.47l-70.08,29.47c-.07.03-.24.09-.32.12-.34.11-.71.17-1.09.17ZM1841.22,983.11c-9.63,30.6,14.29,60.31,42.91,76.71l68.84-28.96c11.85-4.98,22.47-12.83,30.7-22.71l66.21-79.4c7.54-9.04,11.11-20.49,10.05-32.22-1.06-11.73-6.63-22.34-15.68-29.89-7.91-6.6-17.93-10.23-28.21-10.23-13.13,0-25.49,5.78-33.89,15.86l-64.55,77.42c-.32.39-.73.69-1.19.88l-67.71,28.47c-2.57,1.08-5.08,2.44-7.49,4.06Z" style="fill:#272727; stroke-width:0px;"/><path d="M1895.17,1049.23c2.66-2.04,44.15-25.34,47.31-26.83l66.47-31.25,61.3-80.02c16.05-20.94,46.18-24.71,66.91-8.22,20.34,16.19,22.92,46.27,7.11,66.91l-61.92,80.82c-8.12,10.6-18.8,19.2-30.89,24.89l-104.75,56.6c-31.93-16.06-61.31-49.47-51.53-82.91Z" style="fill:#fff; stroke-width:0px;"/><path d="M1946.7,1135.26c-.48,0-.96-.11-1.41-.33-33.99-17.1-63.15-52.33-53.13-86.59.19-.64.57-1.2,1.1-1.6,3.3-2.54,45.52-26.07,47.88-27.18l65.78-30.92,60.84-79.41c9.61-12.54,24.19-19.73,40.01-19.73,11.49,0,22.32,3.79,31.34,10.97,21.32,16.97,24.75,48.94,7.64,71.26l-61.92,80.82c-8.43,11-19.51,19.92-32.05,25.82l-104.59,56.52c-.46.25-.98.38-1.49.38ZM1897.87,1051.18c-8,30.17,18.1,61.42,48.79,77.41l103.3-55.82c11.79-5.55,22.07-13.83,29.89-24.03l61.92-80.82c15.04-19.63,12.09-47.69-6.57-62.55-7.89-6.29-17.38-9.61-27.44-9.61-13.85,0-26.62,6.3-35.03,17.28l-61.3,80.02c-.31.4-.7.72-1.15.93l-66.47,31.25c-2.91,1.37-39.61,22-45.93,25.95Z" style="fill:#272727; stroke-width:0px;"/><path d="M1929.56,1132.26c2.66-2.04,5.55-3.85,8.71-5.33l66.47-31.25,61.3-80.02c15.87-20.71,45.51-24.63,66.21-8.77,20.7,15.86,24.63,45.5,8.77,66.21l-62.88,82.07c-8.12,10.6-18.8,19.2-30.89,24.89l-68.8,32.34c-.06.03-.13.05-.19.08-31.92-16.06-58.47-46.79-48.7-80.22Z" style="fill:#fff; stroke-width:0px;"/><path d="M1978.28,1215.65c-.47,0-.95-.13-1.43-.38-32.47-16.34-60.62-48.62-50.3-83.9.19-.64.57-1.2,1.1-1.61,2.95-2.26,6.07-4.18,9.28-5.69l65.79-30.92,60.84-79.41c9.61-12.54,24.19-19.73,40.01-19.73,11.15,0,21.72,3.59,30.59,10.39,10.67,8.18,17.53,20.03,19.29,33.36,1.76,13.33-1.77,26.56-9.95,37.24l-62.88,82.07c-8.43,11-19.51,19.93-32.05,25.82l-68.8,32.34c-.07.03-.24.1-.31.13-.4.2-.79.29-1.18.29ZM1932.28,1134.13c-8.36,30.97,16.77,59.67,46.04,74.87l67.59-31.78c11.63-5.46,21.91-13.75,29.74-23.96l62.88-82.07c7.16-9.35,10.26-20.93,8.71-32.61-1.55-11.67-7.55-22.05-16.9-29.21-7.77-5.95-17.02-9.1-26.78-9.1-13.85,0-26.62,6.3-35.03,17.28l-61.3,80.01c-.31.4-.7.72-1.15.93l-66.47,31.25c-2.51,1.18-4.97,2.65-7.31,4.37Z" style="fill:#272727; stroke-width:0px;"/><path d="M1895.74,1226.19c2.6-1.26,5.36-2.28,8.28-2.98l61.57-14.75,65.73-56.82c17.01-14.7,42.72-12.83,57.42,4.18,14.7,17.01,12.83,42.71-4.18,57.42l-67.42,58.28c-8.71,7.53-19.23,12.92-30.42,15.6l-63.73,15.27c-.06.01-.12.02-.18.03-24.14-19.14-41.18-49.72-27.08-76.22Z" style="fill:#fff; stroke-width:0px;"/><path d="M1922.92,1305.52c-.74,0-1.5-.22-2.05-.65-24.69-19.58-42.89-51.95-27.9-80.15.31-.58.8-1.06,1.4-1.35,2.9-1.4,5.9-2.48,8.92-3.21l60.83-14.57,65.16-56.33c7.96-6.88,18.14-10.67,28.65-10.67,12.75,0,24.85,5.53,33.18,15.17,7.66,8.86,11.41,20.17,10.56,31.85-.85,11.68-6.2,22.33-15.05,29.99l-67.42,58.28c-9.09,7.85-20.06,13.48-31.74,16.28l-63.73,15.27c-.26.06-.53.09-.81.09ZM1898.04,1228.58c-12.2,24.37,3.77,52.63,25.56,70.45l62.4-14.95c10.71-2.57,20.78-7.73,29.11-14.93l67.42-58.28c7.59-6.56,12.18-15.69,12.9-25.7.73-10.01-2.49-19.7-9.05-27.3-7.14-8.26-17.51-13.01-28.44-13.01-9.01,0-17.73,3.25-24.55,9.15l-65.73,56.82c-.38.33-.83.56-1.32.68l-61.57,14.75c-2.27.54-4.52,1.32-6.72,2.32Z" style="fill:#272727; stroke-width:0px;"/><path d="M1815.95,918.37s-.07,0-.1,0c-1.73-.06-3.09-1.5-3.03-3.23l.91-28.36-71.6-10.91c-1.71-.26-2.89-1.86-2.62-3.57.26-1.71,1.84-2.89,3.57-2.62l74.35,11.33c1.57.24,2.71,1.61,2.66,3.2l-1,31.14c-.05,1.69-1.44,3.03-3.13,3.03Z" style="fill:#272727; stroke-width:0px;"/><path d="M2017.22,973.67c-1.43,0-2.72-.98-3.05-2.43l-16.74-73.43-44.93,12.89c-1.66.47-3.4-.48-3.87-2.15-.48-1.66.48-3.4,2.15-3.87l48.12-13.81c.82-.24,1.72-.13,2.46.31.74.44,1.27,1.16,1.46,2l17.47,76.65c.39,1.69-.67,3.37-2.36,3.75-.24.06-.47.08-.7.08Z" style="fill:#272727; stroke-width:0px;"/><path d="M2098.07,996.67c-1.64,0-3.02-1.27-3.12-2.93l-3.61-55.65-42.7,6.06c-1.73.24-3.3-.95-3.54-2.66-.24-1.71.95-3.3,2.66-3.54l46.05-6.54c.86-.13,1.74.12,2.42.67.68.55,1.09,1.36,1.15,2.23l3.83,59.02c.11,1.73-1.2,3.21-2.92,3.33-.07,0-.14,0-.2,0Z" style="fill:#272727; stroke-width:0px;"/><path d="M2104.31,1123.15c-1.54,0-2.89-1.14-3.1-2.71l-10.67-78.43-49.79,9.8c-1.71.34-3.35-.77-3.68-2.47-.33-1.7.77-3.35,2.47-3.68l53.05-10.44c.85-.16,1.73.03,2.43.53.7.5,1.17,1.27,1.28,2.13l11.12,81.72c.23,1.71-.97,3.29-2.68,3.53-.14.02-.28.03-.43.03Z" style="fill:#272727; stroke-width:0px;"/><path d="M2055.66,1238.93s-.07,0-.1,0c-1.73-.06-3.09-1.5-3.03-3.23l2.28-70.86-29.87-1.38c-1.73-.08-3.06-1.54-2.99-3.27.08-1.73,1.59-3.11,3.27-2.99l32.95,1.52c1.71.08,3.04,1.52,2.99,3.23l-2.38,73.95c-.05,1.69-1.44,3.03-3.13,3.03Z" style="fill:#272727; stroke-width:0px;"/><path d="M1488.85,1091.16c14.38-34.76,33.88-68.43,61.62-94.27,13.47-12.55,27.44-21.11,44.53-27.74,9.47-3.68,26.81,49.53,35.81,53.8,50.42,23.93,126.41-17.4,139.49-4.29,0,0,102.27,131.27,83.29,298.11-37.64,19.62-64.68,38.22-90.84,52.69-46.87-32.22-72.84-95.13-91.36-97.98-17.13-2.64-48.98,106.83-57.96,139-88.66-20.55-206.8-47.94-206.8-47.94,27.81-90.12,46.07-183.98,82.22-271.38Z" style="fill:#fff; stroke-width:0px;"/><path d="M1613.43,1413.61c-.24,0-.47-.02-.71-.08l-206.8-47.94c-.85-.2-1.58-.74-2.01-1.49-.43-.75-.53-1.65-.28-2.48,9.71-31.47,18.41-63.97,26.82-95.41,15.69-58.62,31.91-119.24,55.5-176.24,16.87-40.8,37.28-71.99,62.38-95.36,13.62-12.68,27.66-21.43,45.53-28.37.68-.26,1.38-.39,2.11-.39,6.87,0,12.96,11.69,22.35,30.78,4.58,9.33,10.87,22.1,13.83,23.51,10.36,4.92,22.46,7.31,36.98,7.31,20.6,0,42.37-4.99,59.86-9,12.97-2.97,24.16-5.54,32.11-5.54,5.29,0,9.03,1.16,11.41,3.55.09.09.17.19.25.29,1.03,1.32,102.84,134.2,83.93,300.38-.12,1.03-.74,1.94-1.66,2.42-22.57,11.76-41.6,23.34-58.4,33.54-11.27,6.85-21.91,13.32-32.37,19.11-1.04.58-2.32.51-3.29-.16-25.97-17.85-45.34-44.56-60.9-66.02-11.81-16.29-22.01-30.35-29.16-31.45h0c-7.92,0-28.24,42.79-54.46,136.75-.38,1.38-1.64,2.29-3.01,2.29ZM1410.61,1360.24l200.61,46.5c17.93-63.86,42.52-138.45,59.55-138.45.37,0,.73.03,1.1.08,9.73,1.5,19.61,15.12,33.28,33.97,14.96,20.62,33.5,46.19,57.8,63.42,9.81-5.49,19.85-11.59,30.45-18.03,16.51-10.04,35.17-21.38,57.28-32.98,17.47-160.19-78.53-288.54-82.7-294.01-1.18-1.06-3.48-1.6-6.86-1.6-7.24,0-18.12,2.49-30.71,5.38-17.8,4.08-39.95,9.16-61.26,9.16-15.47,0-28.45-2.59-39.67-7.91-4.7-2.23-9.43-11.49-16.77-26.41-4.6-9.36-13.17-26.78-16.75-27.28-16.91,6.61-30.33,14.97-43.34,27.08-24.43,22.75-44.34,53.23-60.86,93.17-23.42,56.63-39.59,117.05-55.23,175.47-8.15,30.42-16.55,61.85-25.91,92.42Z" style="fill:#272727; stroke-width:0px;"/><path d="M1666.1,1027.75s-1.74,68.24-16.78,79.68c-15.04,11.43-97.06-17.79-116.7,51.25-19.64,69.04-60.99,214.39-60.99,214.39" style="fill:#fff; stroke-width:0px;"/><path d="M1474.64,1373.92l-6.03-1.71,60.99-214.39c14.6-51.29,61.69-50.79,92.87-50.45,11.03.12,21.44.23,24.95-2.44,11.35-8.63,15.07-58.7,15.54-77.26l6.26.16c-.18,7.14-2.24,70.09-18.01,82.09-5.22,3.97-15.13,3.87-28.81,3.72-31.04-.35-73.5-.79-86.78,45.9l-60.99,214.39Z" style="fill:#272727; stroke-width:0px;"/><line x1="1854.48" y1="1269.88" x2="1721.44" y2="1330.23" style="fill:#fff; stroke-width:0px;"/><rect x="1714.92" y="1296.92" width="146.09" height="6.27" transform="translate(-377.28 854.31) rotate(-24.39)" style="fill:#272727; stroke-width:0px;"/></g></svg>