<?xml version="1.0" encoding="UTF-8"?><svg id="Layer_2" xmlns="http://www.w3.org/2000/svg" viewBox="0 0 492.02 428"><g id="Icons"><circle cx="246.01" cy="214" r="192" style="fill:#ebedf0; stroke-width:0px;"/><path d="M39.61,325.6c-.96.56-2.08.56-2.96-.08s-1.28-1.76-1.04-2.8l12.64-52.72L6.97,234.72c-.88-.72-1.2-1.84-.8-2.88.32-.96,1.2-1.68,2.24-1.76l54.24-4.4,20.88-50.08c.48-.96,1.44-1.6,2.48-1.6s2,.64,2.48,1.6l5.52,13.28,10.32,24.8,5.04,12,10,.8,44.24,3.6c1.04.08,1.92.8,2.24,1.76.4,1.04.08,2.16-.8,2.88l-17.76,15.2-23.52,20.08,12.64,52.72c.24,1.04-.16,2.16-1.04,2.8s-2,.64-2.96.08l-46.4-28.24-46.4,28.24Z" style="fill:#a1fe01; stroke-width:0px;"/><path d="M356.65,325.52c-.88-.64-1.28-1.76-1.04-2.8l12.64-52.72-23.52-20.08-17.76-15.2c-.88-.72-1.2-1.84-.8-2.88.32-.96,1.2-1.68,2.24-1.76l44.24-3.6,10-.8,5.04-12,10.32-24.8,5.52-13.28c.48-.96,1.44-1.6,2.48-1.6s2,.64,2.48,1.6l20.88,50.08,54.24,4.4c1.04.08,1.92.8,2.24,1.76.4,1.04.08,2.16-.8,2.88l-41.28,35.28,12.64,52.72c.24,1.04-.16,2.16-1.04,2.8s-2,.64-2.96.08l-46.4-28.24-46.4,28.24c-.96.56-2.08.56-2.96-.08Z" style="fill:#a1fe01; stroke-width:0px;"/><path d="M249.69,104.4l31.36,73.84,81.28,6.4c1.6.08,2.96,1.12,3.52,2.64.48,1.52,0,3.12-1.2,4.16l-62,52,18.96,77.76c.32,1.52-.24,3.12-1.52,4.08-1.36.88-3.04.96-4.4.16l-69.68-41.68-69.68,41.68c-1.36.8-3.04.72-4.4-.16-1.28-.96-1.84-2.56-1.52-4.08l18.96-77.76-62-52c-1.2-1.04-1.68-2.64-1.2-4.16.56-1.52,1.92-2.56,3.52-2.64l81.28-6.4,31.36-73.84c.64-1.44,2.08-2.4,3.68-2.4s3.04.96,3.68,2.4Z" style="fill:#fff; stroke-width:0px;"/><path d="M242.33,104.4c.64-1.44,2.08-2.4,3.68-2.4s3.04.96,3.68,2.4l31.36,73.84,81.28,6.4c1.6.08,2.96,1.12,3.52,2.64.48,1.52,0,3.12-1.2,4.16l-62,52,18.96,77.76c.32,1.52-.24,3.12-1.52,4.08-1.36.88-3.04.96-4.4.16l-69.68-41.68-69.68,41.68c-1.36.8-3.04.72-4.4-.16-1.28-.96-1.84-2.56-1.52-4.08l18.96-77.76-62-52c-1.2-1.04-1.68-2.64-1.2-4.16.56-1.52,1.92-2.56,3.52-2.64l81.28-6.4,31.36-73.84Z" style="fill:none; stroke:#303e58; stroke-linecap:round; stroke-linejoin:round; stroke-width:12px;"/><line x1="246.01" y1="6" x2="246.01" y2="30" style="fill:none; stroke:#979faf; stroke-linecap:round; stroke-linejoin:round; stroke-width:12px;"/><line x1="246.01" y1="422" x2="246.01" y2="398" style="fill:none; stroke:#979faf; stroke-linecap:round; stroke-linejoin:round; stroke-width:12px;"/><line x1="350.01" y1="33.84" x2="328.33" y2="71.36" style="fill:none; stroke:#979faf; stroke-linecap:round; stroke-linejoin:round; stroke-width:12px;"/><line x1="350.01" y1="394.16" x2="328.33" y2="356.64" style="fill:none; stroke:#979faf; stroke-linecap:round; stroke-linejoin:round; stroke-width:12px;"/><line x1="142.01" y1="33.84" x2="163.69" y2="71.36" style="fill:none; stroke:#979faf; stroke-linecap:round; stroke-linejoin:round; stroke-width:12px;"/><line x1="142.01" y1="394.16" x2="163.69" y2="356.64" style="fill:none; stroke:#979faf; stroke-linecap:round; stroke-linejoin:round; stroke-width:12px;"/><line x1="426.17" y1="110" x2="405.37" y2="122" style="fill:none; stroke:#979faf; stroke-linecap:round; stroke-linejoin:round; stroke-width:12px;"/><line x1="65.85" y1="110" x2="86.65" y2="122" style="fill:none; stroke:#979faf; stroke-linecap:round; stroke-linejoin:round; stroke-width:12px;"/><path d="M344.73,249.92l23.52,20.08-12.64,52.72c-.24,1.04.16,2.16,1.04,2.8s2,.64,2.96.08l46.4-28.24,46.4,28.24c.96.56,2.08.56,2.96-.08s1.28-1.76,1.04-2.8l-12.64-52.72,41.28-35.28c.88-.72,1.2-1.84.8-2.88-.32-.96-1.2-1.68-2.24-1.76l-54.24-4.4-20.88-50.08c-.48-.96-1.44-1.6-2.48-1.6s-2,.64-2.48,1.6l-5.52,13.28-10.32,24.8-5.04,12-10,.8" style="fill:none; stroke:#303e58; stroke-linecap:round; stroke-linejoin:round; stroke-width:12px;"/><path d="M147.29,249.92l-23.52,20.08,12.64,52.72c.24,1.04-.16,2.16-1.04,2.8s-2,.64-2.96.08l-46.4-28.24-46.4,28.24c-.96.56-2.08.56-2.96-.08s-1.28-1.76-1.04-2.8l12.64-52.72L6.97,234.72c-.88-.72-1.2-1.84-.8-2.88.32-.96,1.2-1.68,2.24-1.76l54.24-4.4,20.88-50.08c.48-.96,1.44-1.6,2.48-1.6s2,.64,2.48,1.6l5.52,13.28,10.32,24.8,5.04,12,10,.8" style="fill:none; stroke:#303e58; stroke-linecap:round; stroke-linejoin:round; stroke-width:12px;"/></g></svg>