
        <svg xmlns="http://www.w3.org/2000/svg" xmlns:xlink="http://www.w3.org/1999/xlink" version="1.1" width="3160" height="931.2133640771418" viewBox="0 0 3160 931.2133640771418">
			
			<g transform="scale(8) translate(10, 10)">
				<defs id="SvgjsDefs10063"/><g id="SvgjsG10064" featureKey="nRdZyp-0" transform="matrix(1.1901391479979508,0,0,1.1901391479979508,-9.520718202195445,-10.710857350193397)" fill="#000"><title xmlns="http://www.w3.org/2000/svg">bot2_open</title><g xmlns="http://www.w3.org/2000/svg" fill-rule="evenodd"><path d="M20,60 C20,51.7157288 26.7081139,45 35.0050808,45 L64.9949192,45 C73.2819965,45 80,51.7139073 80,60 C80,68.2842712 73.2918861,75 64.9949192,75 L35.0050808,75 C26.7180035,75 20,68.2860927 20,60 Z M35,66 C31.6862915,66 29,63.3137085 29,60 C29,56.6862915 31.6862915,54 35,54 C38.3137085,54 41,56.6862915 41,60 C41,63.3137085 38.3137085,66 35,66 Z M65,66 C61.6862915,66 59,63.3137085 59,60 C59,56.6862915 61.6862915,54 65,54 C68.3137085,54 71,56.6862915 71,60 C71,63.3137085 68.3137085,66 65,66 Z"/><path d="M65 62L65 62C66.1045695 62 67 61.1045695 67 60 67 58.8954305 66.1045695 58 65 58 63.8954305 58 63 58.8954305 63 60 63 61.1045695 63.8954305 62 65 62L65 62zM35 62L35 62C36.1045695 62 37 61.1045695 37 60 37 58.8954305 36.1045695 58 35 58 33.8954305 58 33 58.8954305 33 60 33 61.1045695 33.8954305 62 35 62L35 62z"/><path d="M81.1374158,30.3397781 C90,39.0153006 90,50 90,50 L90,70 C90,70 90,90 50,90 C10,90 10,70 10,70 L10,50 C10,50 10,39.0044239 18.8757506,30.3268977 L8.26908535,12.0020725 C7.71578346,11.0461491 8.04199423,9.82257681 8.99769749,9.26914743 C9.95340076,8.71571805 11.1766911,9.04200398 11.729993,9.99792746 L21.970129,27.6895106 C27.8958591,23.2892727 36.7550811,20 50,20 C63.2552955,20 72.1180196,23.2944286 78.043793,27.6998546 L88.2922771,9.99792746 C88.8457065,9.04200398 90.0692787,8.71571805 91.0252022,9.26914743 C91.9811257,9.82257681 92.3074116,11.0461491 91.7539822,12.0020725 L81.1374158,30.3397781 Z M14,50 L14,70 C14,69.9724452 14.0069729,70.0770394 14.037923,70.2936896 C14.1025381,70.7459952 14.2244193,71.2741473 14.4197332,71.8600889 C15.0099728,73.6308077 16.093439,75.4365847 17.8284271,77.1715729 C23.24535,82.5884957 33.4798628,86 50,86 C66.5201372,86 76.75465,82.5884957 82.1715729,77.1715729 C83.906561,75.4365847 84.9900272,73.6308077 85.5802668,71.8600889 C85.7755807,71.2741473 85.8974619,70.7459952 85.962077,70.2936896 C85.9930271,70.0770394 86,69.9724452 86,70 L86,50 C86,49.8884469 85.9860708,49.5750394 85.9398931,49.0901739 C85.8573922,48.2239138 85.706612,47.2438431 85.4702518,46.1802218 C84.7903506,43.1206666 83.5663124,40.0605712 81.6717988,37.2188008 C76.1879285,28.9929953 66.2019379,24 50,24 C33.7980621,24 23.8120715,28.9929953 18.3282012,37.2188008 C16.4336876,40.0605712 15.2096494,43.1206666 14.5297482,46.1802218 C14.293388,47.2438431 14.1426078,48.2239138 14.0601069,49.0901739 C14.0139292,49.5750394 14,50 14,50 Z"/></g></g><g id="SvgjsG10065" featureKey="Q4qmbg-0" transform="matrix(5.119715615796654,0,0,5.119715615796654,122.84972088171509,-16.212943366973914)" fill="#000"><path d="M4.48 15.8 c0 0.72 -0.02 1.92 1.08 1.92 c0.54 0 0.88 -0.22 1.26 -0.5 l0 2.44 c-0.46 0.26 -1.02 0.5 -1.62 0.5 c-2.54 0 -3.68 -1.08 -3.68 -4.36 l0 -3.24 l-1.1 0 l0 -2.44 l1.1 0 l0 -2.84 l2.96 0 l0 2.84 l2.34 0 l0 2.44 l-2.34 0 l0 3.24 z M18.487708333333334 15.08 l0 0.66 l-7.04 0 c0 1.16 1.18 1.98 2.16 1.98 c0.96 0 1.84 -0.38 2.3 -1.22 l1.98 1.82 c-0.8 1.08 -2.02 1.84 -4.28 1.84 c-3.24 0 -5.22 -2.16 -5.22 -5.08 s1.92 -5.1 5.04 -5.1 s5.06 2.14 5.06 5.1 z M11.507708333333333 13.86 l3.88 0 c-0.16 -0.94 -0.84 -1.44 -1.96 -1.44 c-1.08 0 -1.74 0.58 -1.92 1.44 z M22.495416666666664 5.119999999999999 l0 14.88 l-2.98 0 l0 -14.88 l2.98 0 z M28.963124999999994 12.42 c-1.22 0 -2.24 1.08 -2.24 2.66 c0 1.56 1.02 2.64 2.24 2.64 c1.24 0 2.26 -1.08 2.26 -2.64 c0 -1.58 -1.02 -2.66 -2.26 -2.66 z M28.963124999999994 9.98 c2.9 0 5.22 2.18 5.22 5.1 s-2.32 5.08 -5.22 5.08 c-2.88 0 -5.2 -2.16 -5.2 -5.08 s2.32 -5.1 5.2 -5.1 z M46.23083333333332 10.12 l3.02 0 l-3.76 9.88 l-1.94 0 l-1.84 -4.78 c-0.62 1.66 -1.22 3.22 -1.8 4.78 l-1.96 0 l-3.78 -9.88 l3.04 0 l1.72 5.44 l1.7 -5.44 l2.18 0 l1.7 5.46 z"/></g>
			</g>
		</svg>
	