<?xml version="1.0" encoding="UTF-8"?>
<svg id="Layer_2" data-name="Layer 2" xmlns="http://www.w3.org/2000/svg" viewBox="0 0 800 771.21">
  <defs>
    <style>
      .cls-1 {
        fill: #fff;
        fill-rule: evenodd;
        stroke-width: 0px;
      }
    </style>
  </defs>
  <g id="Layer_1-2" data-name="Layer 1">
    <g id="SvgjsG10064">
      <g>
        <path class="cls-1" d="M114.26,485.58c0-78.88,63.87-142.82,142.87-142.82h285.54c78.9,0,142.87,63.92,142.87,142.82s-63.87,142.82-142.87,142.82h-285.54c-78.9,0-142.87-63.92-142.87-142.82ZM257.07,542.71c-31.55,0-57.13-25.58-57.13-57.13s25.58-57.13,57.13-57.13,57.13,25.58,57.13,57.13-25.58,57.13-57.13,57.13ZM542.71,542.71c-31.55,0-57.13-25.58-57.13-57.13s25.58-57.13,57.13-57.13,57.13,25.58,57.13,57.13-25.58,57.13-57.13,57.13Z"/>
        <path class="cls-1" d="M542.71,504.62h0c10.52,0,19.04-8.53,19.04-19.04s-8.53-19.04-19.04-19.04-19.04,8.53-19.04,19.04,8.53,19.04,19.04,19.04h0ZM257.07,504.62h0c10.52,0,19.04-8.53,19.04-19.04s-8.53-19.04-19.04-19.04-19.04,8.53-19.04,19.04,8.53,19.04,19.04,19.04h0Z"/>
        <path class="cls-1" d="M696.35,203.18c84.38,82.6,84.38,187.19,84.38,187.19v190.42s0,190.42-380.84,190.42S19.05,580.79,19.05,580.79v-190.42s0-104.69,84.51-187.31L2.57,28.59C-2.7,19.48.4,7.84,9.5,2.57,18.6-2.7,30.25.4,35.52,9.5l97.5,168.44c56.42-41.9,140.77-73.21,266.88-73.21s210.59,31.37,267.01,73.31L764.48,9.5c5.27-9.1,16.92-12.21,26.02-6.94,9.1,5.27,12.21,16.92,6.94,26.02l-101.08,174.6ZM57.13,390.37v190.42c0-.26.07.73.36,2.8.62,4.31,1.78,9.34,3.64,14.91,5.62,16.86,15.94,34.05,32.45,50.57,51.58,51.58,149.02,84.06,306.31,84.06s254.73-32.48,306.31-84.06c16.52-16.52,26.83-33.71,32.45-50.57,1.86-5.58,3.02-10.61,3.64-14.91.29-2.06.36-3.06.36-2.8v-190.42c0-1.06-.13-4.05-.57-8.66-.79-8.25-2.22-17.58-4.47-27.71-6.47-29.13-18.13-58.27-36.17-85.32-52.21-78.32-147.29-125.86-301.55-125.86s-249.34,47.54-301.55,125.86c-18.04,27.06-29.69,56.19-36.17,85.32-2.25,10.13-3.69,19.46-4.47,27.71-.44,4.62-.57,8.66-.57,8.66Z"/>
      </g>
    </g>
  </g>
</svg>